<svg height="24" viewBox="0 0 24 24" width="24" xmlns="http://www.w3.org/2000/svg"><path d="m21.1281956 10.4995496c.760151 0 1.4890904.3023599 2.0261002.8404148l.0093002.0083018c1.1171963 1.1206445 1.1147712 2.934768-.0046875 4.051692l-7.6261682 7.6298675c-.104704.1047547-.2380787.1761581-.3833055.2052061l-3.749591.749987c-.5247337.1049563-.9873731-.3577255-.8824264-.8825073l.7499182-3.7499348c.0290388-.1452073.1004101-.2785675.2051178-.3832711l7.6296421-7.6293412c.5370097-.5380549 1.2659492-.8404148 2.0261001-.8404148zm0 1.4999739c-.3618881 0-.7089173.1439457-.9650994.4006259l-7.4696806 7.4691054-.4847472 2.4241293 2.4240785-.4847916 7.4661383-7.4697965c.5225472-.5213645.5347724-1.3607071.0358454-1.8969394l-.023885-.0248152-.0571005-.0549958c-.2513723-.2326111-.5817558-.3625221-.9255495-.3625221zm-3.8800768-11.9995235c1.2247551 0 2.2209281.9787662 2.2491402 2.1968521l.0006144 6.80299154c0 .41420636-.3357498.74998697-.7499182.74998697-.4019869 0-.7301004-.31631927-.7490534-.71364943l-.0008648-6.78622027c0-.40202383-.3162903-.73016733-.713584-.74912212l-.0363342-.00086485h-14.99836417c-.40198697 0-.73010039.31631927-.74905344.71364942l-.00086477.03633755v16.49971329c0 .4020239.31629027.7301674.71358399.7491222l.03633422.0008648h5.99934567c.41416839 0 .74991821.3357806.74991821.749987 0 .4020238-.31629027.7301673-.713584.7491221l-.03633421.0008649h-5.99934567c-1.2247551 0-2.22092806-.9787662-2.2491402-2.1968521l-.00061443-16.55282219c0-1.2248674.97867646-2.2211317 2.19665069-2.24934642zm-4.4995092 13.4997655c.4141683 0 .7499182.3357806.7499182.7499869 0 .4020239-.3162903.7301674-.713584.7491221l-.0363342.0008649h-7.49918214c-.41416839 0-.74991821-.3357806-.74991821-.749987 0-.4020238.31629027-.7301673.713584-.7491221l.03633421-.0008648zm1.4998364-4.49992186c.4141684 0 .7499182.3357806.7499182.74998697 0 .40202379-.3162903.73016729-.713584.74912209l-.0363342.0008649h-8.99901854c-.41416839 0-.74991821-.3357806-.74991821-.74998699 0-.40202383.31629027-.73016733.713584-.74912212l.03633421-.00086485zm0-4.49992182c.4141684 0 .7499182.3357806.7499182.74998697 0 .40202382-.3162903.73016733-.713584.74912211l-6.0356799.00086486c-.41416839 0-.74991821-.33578061-.74991821-.74998697 0-.40202383.31629027-.73016733.713584-.74912212l.03633421-.00086485z" fill="#134154"/></svg>