<svg width="24" height="24" viewBox="0 0 24 24" xmlns="http://www.w3.org/2000/svg">
    <g fill="#134154" fill-rule="nonzero">
        <path d="M16.808 0C18 0 18.972.979 18.999 2.197L19 2.25V9a.74.74 0 0 1-.73.75.74.74 0 0 1-.73-.714L17.537 9V2.25a.742.742 0 0 0-.695-.75H2.193a.74.74 0 0 0-.73.714l-.001.036v16.5c0 .402.308.73.695.75h5.881a.74.74 0 0 1 .731.75c0 .402-.308.73-.695.75H2.192C1 21 .028 20.021.001 18.803L0 2.25C0 1.025.954.029 2.14 0h14.668zM8.525 12a.74.74 0 0 1 .731.75c0 .402-.308.73-.695.75H5.115a.74.74 0 0 1-.73-.75c0-.402.308-.73.695-.749H8.525zm5.36-4a.74.74 0 0 1 .73.75c0 .402-.308.73-.695.75H5.115a.74.74 0 0 1-.73-.75c0-.402.308-.73.695-.749h8.805zm0-4a.74.74 0 0 1 .73.75c0 .402-.308.73-.695.75H5.115a.74.74 0 0 1-.73-.75c0-.402.308-.73.695-.75h8.805z"/>
        <path d="m17.006 10-.105.003a1.604 1.604 0 0 0-1.318.857l-1.406 3.03h-2.61c-.618-.027-1.215.36-1.457.967l-.035.096a1.541 1.541 0 0 0 .45 1.633l2.277 2.25-1.28 2.947a1.6 1.6 0 0 0 .414 1.82l.083.068a1.587 1.587 0 0 0 1.76.115l3.223-1.815 3.232 1.82a1.584 1.584 0 0 0 1.836-.188l.074-.07c.453-.452.593-1.138.345-1.737l-1.287-2.962 2.311-2.283c.456-.405.617-1.096.374-1.699l-.039-.088a1.536 1.536 0 0 0-1.446-.874h-2.578l-1.383-2.992A1.616 1.616 0 0 0 17.006 10zm-.033 1.55c-.007.016.01.005.03.005.019 0 .036.011.045.028l1.576 3.411.035.067a.776.776 0 0 0 .67.384h3.095l-2.69 2.656a.779.779 0 0 0-.167.865l1.494 3.438c0 .003-.003.02-.015.03a.037.037 0 0 1-.043.005l-3.62-2.038a.775.775 0 0 0-.76 0l-3.612 2.033c-.022.013-.04.01-.051 0a.037.037 0 0 1-.01-.042l1.488-3.423a.779.779 0 0 0-.167-.864l-2.693-2.661h3.094a.776.776 0 0 0 .704-.45l1.597-3.445z"/>
    </g>
</svg>
