<svg height="24" viewBox="0 0 24 24" width="24" xmlns="http://www.w3.org/2000/svg"><g fill="#3e5b67"><path d="m17.5 4.5c1.1045695 0 2 .8954305 2 2v14c0 1.1045695-.8954305 2-2 2h-12c-.55228475 0-1-.4477153-1-1s.44771525-1 1-1h12v-14h-12c-.55228475 0-1-.44771525-1-1s.44771525-1 1-1z" fill-opacity=".3" transform="matrix(0 1 -1 0 25.5 1.5)"/><path d="m12-5c.5522847 0 1 .44771525 1 1v16c0 .5522847-.4477153 1-1 1s-1-.4477153-1-1v-16c0-.55228475.4477153-1 1-1z" transform="matrix(0 1 -1 0 16 -8)"/></g></svg>