<svg height="24" viewBox="0 0 24 24" width="24" xmlns="http://www.w3.org/2000/svg"><g fill="#3e5b67" fill-rule="evenodd"><circle cx="12" cy="1.333333" r="1.333333"/><circle cx="8" cy="1.333333" r="1.333333"/><circle cx="20" cy="1.333333" r="1.333333"/><circle cx="4" cy="1.333333" r="1.333333"/><circle cx="16" cy="1.333333" r="1.333333"/><circle cx="1.333333" cy="4" r="1.333333"/><circle cx="22.666667" cy="4" r="1.333333"/><circle cx="1.333333" cy="8" r="1.333333"/><circle cx="22.666667" cy="8" r="1.333333"/><circle cx="1.333333" cy="12" r="1.333333"/><circle cx="22.666667" cy="12" r="1.333333"/><circle cx="1.333333" cy="16" r="1.333333"/><circle cx="22.666667" cy="16" r="1.333333"/><circle cx="1.333333" cy="20" r="1.333333"/><circle cx="22.666667" cy="20" r="1.333333"/><circle cx="4" cy="22.666667" r="1.333333"/><circle cx="16" cy="22.666667" r="1.333333"/><circle cx="8" cy="22.666667" r="1.333333"/><circle cx="20" cy="22.666667" r="1.333333"/><circle cx="12" cy="22.666667" r="1.333333"/></g></svg>