<svg height="24" viewBox="0 0 24 24" width="24" xmlns="http://www.w3.org/2000/svg"><g fill="#3e5b67"><path d="m18.6666667 0c2.9455186 0 5.3333333 2.38781467 5.3333333 5.33333333v2.66666667c0 .73637967-.5969537 1.33333333-1.3333333 1.33333333-.7363797 0-1.3333334-.59695366-1.3333334-1.33333333v-2.66666667c0-1.47275933-1.1939073-2.66666666-2.6666666-2.66666666h-2.6666667c-.7363797 0-1.3333333-.59695367-1.3333333-1.33333334 0-.73637966.5969536-1.33333333 1.3333333-1.33333333z"/><path d="m18.6666667 14.6666667c2.9455186 0 5.3333333 2.3878146 5.3333333 5.3333333v2.6666667c0 .7363796-.5969537 1.3333333-1.3333333 1.3333333-.7363797 0-1.3333334-.5969537-1.3333334-1.3333333v-2.6666667c0-1.4727593-1.1939073-2.6666667-2.6666666-2.6666667h-2.6666667c-.7363797 0-1.3333333-.5969536-1.3333333-1.3333333s.5969536-1.3333333 1.3333333-1.3333333z" transform="matrix(0 1 -1 0 38.666666 0)"/><path d="m4 0c2.94551867 0 5.33333333 2.38781467 5.33333333 5.33333333v2.66666667c0 .73637967-.59695366 1.33333333-1.33333333 1.33333333s-1.33333333-.59695366-1.33333333-1.33333333v-2.66666667c0-1.47275933-1.19390734-2.66666666-2.66666667-2.66666666h-2.66666667c-.73637966 0-1.33333333-.59695367-1.33333333-1.33333334 0-.73637966.59695367-1.33333333 1.33333333-1.33333333z" transform="matrix(-1 0 0 1 9.333334 0)"/><path d="m4 14.6666667c2.94551867 0 5.33333333 2.3878146 5.33333333 5.3333333v2.6666667c0 .7363796-.59695366 1.3333333-1.33333333 1.3333333s-1.33333333-.5969537-1.33333333-1.3333333v-2.6666667c0-1.4727593-1.19390734-2.6666667-2.66666667-2.6666667h-2.66666667c-.73637966 0-1.33333333-.5969536-1.33333333-1.3333333s.59695367-1.3333333 1.33333333-1.3333333z" transform="matrix(0 1 1 0 -14.666666 14.666666)"/></g></svg>