<svg height="24" viewBox="0 0 24 24" width="24" xmlns="http://www.w3.org/2000/svg"><g fill="#3e5b67"><path d="m14 3c.5522847 0 1 .44771525 1 1s-.4477153 1-1 1h-4c-.55228475 0-1-.44771525-1-1s.44771525-1 1-1z"/><path d="m4 9c.55228475 0 1 .44771525 1 1v4c0 .5522847-.44771525 1-1 1s-1-.4477153-1-1v-4c0-.55228475.44771525-1 1-1z"/><path d="m20 9c.5522847 0 1 .44771525 1 1v4c0 .5522847-.4477153 1-1 1s-1-.4477153-1-1v-4c0-.55228475.4477153-1 1-1z"/><path d="m14 19c.5522847 0 1 .4477153 1 1s-.4477153 1-1 1h-4c-.55228475 0-1-.4477153-1-1s.44771525-1 1-1z"/><path d="m7 3c.55228475 0 1 .44771525 1 1s-.44771525 1-1 1c-1.44771525 0-2 .55228475-2 2 0 .55228475-.44771525 1-1 1s-1-.44771525-1-1c0-2.55228475 1.44771525-4 4-4z"/><path d="m20 3c.5522847 0 1 .44771525 1 1s-.4477153 1-1 1c-1.4477153 0-2 .55228475-2 2 0 .55228475-.4477153 1-1 1s-1-.44771525-1-1c0-2.55228475 1.4477153-4 4-4z" transform="matrix(0 1 -1 0 24 -13)"/><path d="m20 16c.5522847 0 1 .4477153 1 1s-.4477153 1-1 1c-1.4477153 0-2 .5522847-2 2 0 .5522847-.4477153 1-1 1s-1-.4477153-1-1c0-2.5522847 1.4477153-4 4-4z" transform="matrix(-1 0 0 -1 37 37)"/><path d="m7 16c.55228475 0 1 .4477153 1 1s-.44771525 1-1 1c-1.44771525 0-2 .5522847-2 2 0 .5522847-.44771525 1-1 1s-1-.4477153-1-1c0-2.5522847 1.44771525-4 4-4z" transform="matrix(0 -1 1 0 -13 24)"/></g></svg>