<svg height="24" viewBox="0 0 24 24" width="24" xmlns="http://www.w3.org/2000/svg"><g fill="#3e5b67"><path d="m14.6666667 0c.7363796 0 1.3333333.59695367 1.3333333 1.33333333 0 .73637967-.5969537 1.33333334-1.3333333 1.33333334h-5.33333337c-.73637966 0-1.33333333-.59695367-1.33333333-1.33333334 0-.73637966.59695367-1.33333333 1.33333333-1.33333333z"/><path d="m1.33333333 8c.73637967 0 1.33333334.59695367 1.33333334 1.33333333v5.33333337c0 .7363796-.59695367 1.3333333-1.33333334 1.3333333-.73637966 0-1.33333333-.5969537-1.33333333-1.3333333v-5.33333337c0-.73637966.59695367-1.33333333 1.33333333-1.33333333z"/><path d="m22.6666667 8c.7363796 0 1.3333333.59695367 1.3333333 1.33333333v5.33333337c0 .7363796-.5969537 1.3333333-1.3333333 1.3333333-.7363797 0-1.3333334-.5969537-1.3333334-1.3333333v-5.33333337c0-.73637966.5969537-1.33333333 1.3333334-1.33333333z"/><path d="m14.6666667 21.3333333c.7363796 0 1.3333333.5969537 1.3333333 1.3333334 0 .7363796-.5969537 1.3333333-1.3333333 1.3333333h-5.33333337c-.73637966 0-1.33333333-.5969537-1.33333333-1.3333333 0-.7363797.59695367-1.3333334 1.33333333-1.3333334z"/><path d="m5.33333333 0c.73637967 0 1.33333334.59695367 1.33333334 1.33333333 0 .73637967-.59695367 1.33333334-1.33333334 1.33333334-1.930287 0-2.66666666.73637966-2.66666666 2.66666666 0 .73637967-.59695367 1.33333334-1.33333334 1.33333334-.73637966 0-1.33333333-.59695367-1.33333333-1.33333334 0-3.40304633 1.930287-5.33333333 5.33333333-5.33333333z"/><path d="m22.6666667 0c.7363796 0 1.3333333.59695367 1.3333333 1.33333333 0 .73637967-.5969537 1.33333334-1.3333333 1.33333334-1.930287 0-2.6666667.73637966-2.6666667 2.66666666 0 .73637967-.5969537 1.33333334-1.3333333 1.33333334-.7363797 0-1.3333334-.59695367-1.3333334-1.33333334 0-3.40304633 1.930287-5.33333333 5.3333334-5.33333333z" transform="matrix(0 1 -1 0 24 -17.333334)"/><path d="m22.6666667 17.3333333c.7363796 0 1.3333333.5969537 1.3333333 1.3333334 0 .7363796-.5969537 1.3333333-1.3333333 1.3333333-1.930287 0-2.6666667.7363797-2.6666667 2.6666667 0 .7363796-.5969537 1.3333333-1.3333333 1.3333333-.7363797 0-1.3333334-.5969537-1.3333334-1.3333333 0-3.4030464 1.930287-5.3333334 5.3333334-5.3333334z" transform="matrix(-1 0 0 -1 41.333334 41.333334)"/><path d="m5.33333333 17.3333333c.73637967 0 1.33333334.5969537 1.33333334 1.3333334 0 .7363796-.59695367 1.3333333-1.33333334 1.3333333-1.930287 0-2.66666666.7363797-2.66666666 2.6666667 0 .7363796-.59695367 1.3333333-1.33333334 1.3333333-.73637966 0-1.33333333-.5969537-1.33333333-1.3333333 0-3.4030464 1.930287-5.3333334 5.33333333-5.3333334z" transform="matrix(0 -1 1 0 -17.333334 24)"/></g></svg>