<svg height="24" viewBox="0 0 24 24" width="24" xmlns="http://www.w3.org/2000/svg"><g fill="#3e5b67"><path d="m16 3c1.1045695 0 2 .8954305 2 2v14c0 1.1045695-.8954305 2-2 2h-12c-.55228475 0-1-.4477153-1-1s.44771525-1 1-1h12v-14h-12c-.55228475 0-1-.44771525-1-1s.44771525-1 1-1z" fill-opacity=".3" transform="matrix(-1 0 0 -1 21 24)"/><path d="m20 3c.5522847 0 1 .44771525 1 1v16c0 .5522847-.4477153 1-1 1s-1-.4477153-1-1v-16c0-.55228475.4477153-1 1-1z" transform="matrix(-1 0 0 -1 40 24)"/></g></svg>