<svg height="24" viewBox="0 0 24 24" width="24" xmlns="http://www.w3.org/2000/svg"><g fill="#3e5b67" fill-rule="evenodd"><circle cx="12" cy="4" r="1"/><circle cx="9" cy="4" r="1"/><circle cx="18" cy="4" r="1"/><circle cx="6" cy="4" r="1"/><circle cx="15" cy="4" r="1"/><circle cx="4" cy="6" r="1"/><circle cx="20" cy="6" r="1"/><circle cx="4" cy="9" r="1"/><circle cx="20" cy="9" r="1"/><circle cx="4" cy="12" r="1"/><circle cx="20" cy="12" r="1"/><circle cx="4" cy="15" r="1"/><circle cx="20" cy="15" r="1"/><circle cx="4" cy="18" r="1"/><circle cx="20" cy="18" r="1"/><circle cx="6" cy="20" r="1"/><circle cx="15" cy="20" r="1"/><circle cx="9" cy="20" r="1"/><circle cx="18" cy="20" r="1"/><circle cx="12" cy="20" r="1"/></g></svg>