<svg height="24" viewBox="0 0 24 24" width="24" xmlns="http://www.w3.org/2000/svg"><g fill="#3e5b67" transform="matrix(0 -1 1 0 0 24)"><path d="m21.3333333 0c1.4727594 0 2.6666667 1.19390733 2.6666667 2.66666667v18.66666663c0 1.4727594-1.1939073 2.6666667-2.6666667 2.6666667h-15.99999997c-.73637966 0-1.33333333-.5969537-1.33333333-1.3333333 0-.7363797.59695367-1.3333334 1.33333333-1.3333334h15.99999997v-18.66666663h-15.99999997c-.73637966 0-1.33333333-.59695367-1.33333333-1.33333334 0-.73637966.59695367-1.33333333 1.33333333-1.33333333z" fill-opacity=".3"/><path d="m1.33333333 0c.73637967 0 1.33333334.59695367 1.33333334 1.33333333v21.33333337c0 .7363796-.59695367 1.3333333-1.33333334 1.3333333-.73637966 0-1.33333333-.5969537-1.33333333-1.3333333v-21.33333337c0-.73637966.59695367-1.33333333 1.33333333-1.33333333z"/></g></svg>