<svg height="24" viewBox="0 0 24 24" width="24" xmlns="http://www.w3.org/2000/svg"><path d="m18.6666667 0h-13.33333337c-2.94551866 0-5.33333333 2.38781467-5.33333333 5.33333333v13.33333337c0 2.9455186 2.38781467 5.3333333 5.33333333 5.3333333h13.33333337c2.9455186 0 5.3333333-2.3878147 5.3333333-5.3333333v-13.33333337c0-2.94551866-2.3878147-5.33333333-5.3333333-5.33333333zm0 2.66666667c1.4727593 0 2.6666666 1.19390733 2.6666666 2.66666666v13.33333337c0 1.4727593-1.1939073 2.6666666-2.6666666 2.6666666h-13.33333337c-1.47275933 0-2.66666666-1.1939073-2.66666666-2.6666666v-13.33333337c0-1.47275933 1.19390733-2.66666666 2.66666666-2.66666666z" fill="#3e5b67"/></svg>