<svg height="24" viewBox="0 0 24 24" width="24" xmlns="http://www.w3.org/2000/svg"><g fill="#3e5b67"><path d="m17 3c2.209139 0 4 1.790861 4 4v2c0 .55228475-.4477153 1-1 1s-1-.44771525-1-1v-2c0-1.1045695-.8954305-2-2-2h-2c-.5522847 0-1-.44771525-1-1s.4477153-1 1-1z"/><path d="m17 14c2.209139 0 4 1.790861 4 4v2c0 .5522847-.4477153 1-1 1s-1-.4477153-1-1v-2c0-1.1045695-.8954305-2-2-2h-2c-.5522847 0-1-.4477153-1-1s.4477153-1 1-1z" transform="matrix(0 1 -1 0 35 0)"/><path d="m6 3c2.209139 0 4 1.790861 4 4v2c0 .55228475-.44771525 1-1 1s-1-.44771525-1-1v-2c0-1.1045695-.8954305-2-2-2h-2c-.55228475 0-1-.44771525-1-1s.44771525-1 1-1z" transform="matrix(-1 0 0 1 13 0)"/><path d="m6 14c2.209139 0 4 1.790861 4 4v2c0 .5522847-.44771525 1-1 1s-1-.4477153-1-1v-2c0-1.1045695-.8954305-2-2-2h-2c-.55228475 0-1-.4477153-1-1s.44771525-1 1-1z" transform="matrix(0 1 1 0 -11 11)"/></g></svg>