<svg height="24" viewBox="0 0 24 24" width="24" xmlns="http://www.w3.org/2000/svg"><g fill="#3e5b67" fill-rule="evenodd"><path d="m12 .42916176c.6390398 0 1.1570838.51804408 1.1570838 1.15708383v20.82750881c0 .6390398-.518044 1.1570838-1.1570838 1.1570838s-1.1570838-.518044-1.1570838-1.1570838v-20.82750881c0-.63903975.518044-1.15708383 1.1570838-1.15708383z" transform="matrix(.70710678 .70710678 -.70710678 .70710678 12 -4.970563)"/><path d="m12 .42916176c.6390398 0 1.1570838.51804408 1.1570838 1.15708383v20.82750881c0 .6390398-.518044 1.1570838-1.1570838 1.1570838s-1.1570838-.518044-1.1570838-1.1570838v-20.82750881c0-.63903975.518044-1.15708383 1.1570838-1.15708383z" transform="matrix(.70710678 -.70710678 .70710678 .70710678 -4.970563 12)"/></g></svg>