<svg xmlns="http://www.w3.org/2000/svg" width="24" height="24" viewBox="0 0 24 24">
    <path fill="#0D3B4E" fill-rule="nonzero" d="M.708 0c.392 0 .709.317.709.708l-.001.797h11.337c1.222 0 2.214.992 2.214 2.215l-.001 2.302h7.575a1.461 1.461 0 0 1 1.089 2.434l-4.016 4.522a.797.797 0 0 0 0 1.06l4.015 4.516a1.461 1.461 0 0 1-1.091 2.432l-12.748.001a.719.719 0 0 1-.048.002l-.049-.004H8.99a2.214 2.214 0 0 1-2.214-2.213l-.001-2.3H1.416l.001 6.82a.708.708 0 1 1-1.417 0V.708C0 .318.317 0 .708 0zm9.973 16.472H8.192v2.3c0 .44.358.797.798.797h.091a5.213 5.213 0 0 1 1.6-3.097zm4.286-.708a.708.708 0 0 1-.709.708 3.81 3.81 0 0 0-3.741 3.097h12.02a.044.044 0 0 0 .033-.073l-4.014-4.517a2.214 2.214 0 0 1 0-2.943l4.016-4.523a.044.044 0 0 0-.032-.074h-7.574v8.325zM12.753 2.923L1.416 2.922v12.133l6.02-.001a.719.719 0 0 1 .048-.002l.048.003h6.018V3.72a.797.797 0 0 0-.797-.797z"/>
</svg>
