<svg xmlns="http://www.w3.org/2000/svg" width="32" height="32" viewBox="0 0 32 32">
    <path fill="#0D3B4E" fill-rule="nonzero" d="M.945 0c.521 0 .944.423.944.945v1.062h15.115a2.952 2.952 0 0 1 2.952 2.952l-.001 3.07h10.1a1.948 1.948 0 0 1 1.451 3.245l-5.354 6.03a1.063 1.063 0 0 0 0 1.413l5.354 6.022a1.948 1.948 0 0 1-1.456 3.242l-16.998.002a.959.959 0 0 1-.063.002l-.064-.004h-.938a2.952 2.952 0 0 1-2.952-2.952l-.001-3.066H1.889v9.092a.945.945 0 1 1-1.889 0V.945C0 .423.423 0 .945 0zM14.24 21.963h-3.318v3.066c0 .587.477 1.063 1.064 1.063l.121-.001a6.95 6.95 0 0 1 2.133-4.128zm5.715-.945a.945.945 0 0 1-.945.945 5.08 5.08 0 0 0-4.989 4.128H30.05a.059.059 0 0 0 .045-.097l-5.353-6.022a2.952 2.952 0 0 1 0-3.923l5.355-6.032a.059.059 0 0 0-.043-.098l-10.098-.001v11.1zM17.004 3.897L1.889 3.896v16.177l8.027-.001a.959.959 0 0 1 .063-.002l.063.003h8.024V4.96c0-.587-.475-1.062-1.062-1.062z"/>
</svg>
