<svg xmlns="http://www.w3.org/2000/svg" width="24" height="24" viewBox="0 0 24 24">
    <path fill="#0D3B4E" fill-rule="nonzero" d="M12.75 5.252A2.25 2.25 0 0 1 15 7.502V12.9l3.587.797a3.748 3.748 0 0 1 2.92 4l-.51 5.621a.75.75 0 0 1-.747.682l-9-.003a.75.75 0 0 1-.6-.3L6.8 18.566a2.284 2.284 0 0 1 3.088-3.272c.063.043.063.043.108.077l.499.375V7.502a2.25 2.25 0 0 1 2.25-2.25h.005zm0 1.5a.752.752 0 0 0-.755.75v9.746a.75.75 0 0 1-1.2.6l-1.709-1.285-.024-.017A.783.783 0 1 0 8 17.666l3.625 4.831 7.94.003.45-4.94a2.249 2.249 0 0 0-1.754-2.399l-4.174-.928a.75.75 0 0 1-.587-.732V7.502a.75.75 0 0 0-.75-.75zM20.25 0A3.75 3.75 0 0 1 24 3.75v8.997a3.738 3.738 0 0 1-.937 2.482.75.75 0 0 1-1.124-.993 2.24 2.24 0 0 0 .561-1.488V3.75a2.25 2.25 0 0 0-2.25-2.25H3.75A2.25 2.25 0 0 0 1.5 3.75v8.998a2.25 2.25 0 0 0 2.25 2.25.75.75 0 1 1 0 1.5A3.75 3.75 0 0 1 0 12.748V3.75A3.75 3.75 0 0 1 3.75 0z"/>
</svg>
