<svg xmlns="http://www.w3.org/2000/svg" width="18" height="18" viewBox="0 0 18 18">
    <path fill="#0D3B4E" fill-rule="nonzero" d="M9.563 3.94c.931 0 1.687.756 1.687 1.687v4.05l2.69.597a2.812 2.812 0 0 1 2.19 3l-.382 4.217a.563.563 0 0 1-.56.511L8.437 18a.563.563 0 0 1-.45-.225L5.1 13.926a1.713 1.713 0 0 1 2.316-2.454c.047.032.047.032.08.057l.375.282V5.627c0-.931.756-1.687 1.688-1.687h.004zm0 1.125a.564.564 0 0 0-.567.562v7.31c0 .464-.53.729-.9.45l-1.281-.963-.019-.013a.588.588 0 0 0-.796.84l2.719 3.624 5.955.002.337-3.705a1.687 1.687 0 0 0-1.315-1.8l-3.13-.696a.563.563 0 0 1-.441-.549v-4.5a.563.563 0 0 0-.563-.562zM15.186 0A2.812 2.812 0 0 1 18 2.813v6.749c0 .685-.249 1.347-.703 1.86a.563.563 0 0 1-.843-.744 1.68 1.68 0 0 0 .421-1.116v-6.75c0-.932-.755-1.687-1.688-1.687H2.813c-.933 0-1.688.755-1.688 1.688v6.75c0 .932.755 1.687 1.688 1.687a.563.563 0 0 1 0 1.125A2.812 2.812 0 0 1 0 9.562v-6.75A2.812 2.812 0 0 1 2.813 0z"/>
</svg>
