<svg height="24" viewBox="0 0 24 24" width="24" xmlns="http://www.w3.org/2000/svg"><path d="m4.33851429 17.36c.39466666 0 .64533333-.1866667.752-.56l.784-2.352h3.984l.80000001 2.368c.1066667.3626667.3573333.544.752.544h.736c.2453333 0 .4186667-.0693333.52-.208s.1093333-.3253333.024-.56l-3.55200001-10.048c-.10666667-.36266667-.35733334-.544-.752-.544h-1.024c-.37333334 0-.624.18133333-.752.544l-3.552 10.048c-.08533334.2346667-.07733334.4213333.024.56.10133333.1386667.27466666.208.52.208zm5.008-4.592h-2.96l1.024-3.04c.05333333-.16.10133333-.34133333.144-.544.04266666-.20266667.09066666-.39466667.144-.576.04266666-.20266667.096-.416.16-.64h.032c.04266666.224.09066666.43733333.144.64.04266666.18133333.09066666.37333333.144.576.05333333.20266667.10666666.384.16.544zm7.18800001 4.784c.448 0 .832-.08 1.152-.24s.5866667-.336.8-.528c.2453333-.224.448-.48.608-.768h.032c-.0106667.0213333-.016.0533333-.016.096-.0106667.0426667-.016.128-.016.256v.32c0 .448.2186667.672.656.672h.544c.448 0 .672-.224.672-.672v-4.432c0-1.0346667-.296-1.8346667-.888-2.4-.592-.56533333-1.4213333-.848-2.488-.848-.608 0-1.1386667.07733333-1.592.232s-.8133333.30133333-1.08.44c-.3733333.20266667-.4586667.5013333-.256.896l.16.304c.1813333.3626667.48.4533333.896.272.192-.1066667.4373333-.2106667.736-.312s.6186667-.152.96-.152c.416 0 .7733333.1066667 1.072.32s.448.5866667.448 1.12v.192h-.336c-.3093333 0-.64.0133333-.992.04s-.704.0773333-1.056.152-.6906667.176-1.016.304-.616.296-.872.504-.4586667.4586667-.608.752-.224.6373333-.224 1.032c0 .3733333.072.7093333.216 1.008s.3386667.5546667.584.768.5306667.3786667.856.496.6746667.176 1.048.176zm.544-1.552c-.4053333 0-.712-.1093333-.92-.328s-.312-.4666667-.312-.744c0-.2986667.096-.5386667.288-.72s.4293333-.32.712-.416.584-.16.904-.192.608-.048.864-.048h.336v.304c0 .2453333-.0453333.496-.136.752s-.216.488-.376.696-.3546667.376-.584.504-.488.192-.776.192z" fill="#3e5b67"/></svg>