<svg height="24" viewBox="0 0 24 24" width="24" xmlns="http://www.w3.org/2000/svg"><path d="m10.4 3.2c.4418278 0 .8.3581722.8.8v8.8h8.8c.4288329 0 .7788587.3374131.7990775.7612393l.0009225.0387607c0 5.7437614-4.6562386 10.4-10.4 10.4s-10.4-4.6562386-10.4-10.4 4.6562386-10.4 10.4-10.4zm-.8 1.63602286-.06422851.00587575c-4.45448097.43420146-7.93577149 4.18960194-7.93577149 8.75810139 0 4.8601058 3.9398942 8.8 8.8 8.8 4.5684995 0 8.3238999-3.4812905 8.7581014-7.9357715l.0056929-.0642285h-8.7637943c-.42883286 0-.77885868-.3374131-.79907747-.7612393l-.00092253-.0387607zm4-4.83602286c5.7437614 0 10.4 4.6562386 10.4 10.4 0 .4418278-.3581722.8-.8.8h-9.6c-.4418278 0-.8-.3581722-.8-.8v-9.6c0-.4418278.3581722-.8.8-.8zm.8 1.63620571v7.96379429h7.9637943l-.0056929-.06422851c-.4064865-4.1701524-3.7237205-7.48738641-7.8938729-7.89387288z" fill="#134154"/></svg>