<svg xmlns="http://www.w3.org/2000/svg" width="24" height="24" viewBox="0 0 24 24">
    <path fill="#134154" fill-rule="nonzero" d="M15.23 13.256c.151.05.301.102.45.157l.276.108A10.503 10.503 0 0 1 22.5 23.25a.75.75 0 1 1-1.5 0 9.002 9.002 0 0 0-2.926-6.644l-.852 3.093a.75.75 0 0 1-1.139.425l-3.334-2.223v5.349a.75.75 0 0 1-.648.743L12 24a.75.75 0 0 1-.743-.648l-.006-.102-.001-5.349-3.333 2.223a.75.75 0 0 1-1.14-.425l-.85-3.092A9.006 9.006 0 0 0 3 23.25a.75.75 0 0 1-1.5 0 10.508 10.508 0 0 1 6.233-9.597l.31-.132.39-.15c.11-.04.222-.078.336-.115a.75.75 0 0 1 .625.076l.09.065L12 15.519l2.516-2.122a.75.75 0 0 1 .714-.14zM18 21.75a.75.75 0 0 1 .101 1.493l-.102.007h-3a.75.75 0 0 1-.101-1.493l.101-.007h3zm-2.844-6.931l-1.91 1.61 2.806 1.871.735-2.673a8.952 8.952 0 0 0-.621-.357l-.321-.16a8.982 8.982 0 0 0-.35-.156l-.339-.135zm-6.313 0l-.339.135-.368.165-.267.133a8.957 8.957 0 0 0-.656.376l.735 2.672 2.805-1.87-1.91-1.611zM12 0a6 6 0 1 1 0 12 6 6 0 0 1 0-12zM7.5 6a4.5 4.5 0 0 0 8.972.506c-3.031.57-5.499.02-7.77-1.318-.305-.18-.594-.365-.923-.588l-.046-.032C7.582 5.018 7.5 5.499 7.5 6zM12 1.5c-1.444 0-2.729.68-3.552 1.737l.394.27c.216.142.415.267.62.388 2.021 1.19 4.181 1.658 6.924 1.1A4.499 4.499 0 0 0 12 1.5z"/>
</svg>
