<?xml version="1.0" encoding="UTF-8"?>
<svg width="24px" height="24px" viewBox="0 0 24 24" version="1.1" xmlns="http://www.w3.org/2000/svg" xmlns:xlink="http://www.w3.org/1999/xlink">
    <!-- Generator: Sketch 59.1 (86144) - https://sketch.com -->
    <title>Artboard</title>
    <desc>Created with Sketch.</desc>
    <g id="Artboard" stroke="none" stroke-width="1" fill="none" fill-rule="evenodd">
        <path d="M15.0158666,13.3966637 C15.2137965,13.2297348 15.4838279,13.1767131 15.7301784,13.2564059 C15.8434441,13.2930467 15.9557548,13.3314864 16.0670832,13.3716874 L15.7304118,13.2564815 C15.8813419,13.305361 16.0310018,13.3575997 16.1792853,13.413146 C16.2721605,13.4476529 16.3645393,13.4836961 16.4562004,13.5209539 C16.469095,13.5266218 16.4823759,13.5320614 16.4956448,13.537528 L16.4562004,13.5209539 C20.3888262,15.1194614 23,18.9536874 23,23.25 C23,23.6642136 22.6642296,24 22.2500357,24 C21.8358419,24 21.5000714,23.6642136 21.5000714,23.25 C21.5000714,20.6649778 20.397323,18.2751526 18.5741409,16.6062534 L17.7223767,19.6989716 C17.5867626,20.1918596 17.0086093,20.4076038 16.5832804,20.1240377 L13.249,17.901 L13.2494643,23.25 C13.2494643,23.6296958 12.9673239,23.943491 12.6012657,23.9931534 L12.4995,24 C12.0853062,24 11.7495357,23.6642136 11.7495357,23.25 L11.7495357,23.25 L11.749,17.901 L8.41571964,20.1240377 C7.99033264,20.4076426 7.41210268,20.1917967 7.27657926,19.6988113 L6.42588027,16.6068546 C4.60319445,18.2759357 3.50053969,20.6655644 3.49992855,23.2501773 C3.49983061,23.6643909 3.16398078,24 2.74978695,24 C2.33559312,24 2,23.6640362 2,23.2498227 C2.00101234,18.9685338 4.594254,15.1458013 8.50388834,13.537105 C8.51779875,13.5316438 8.53073451,13.5263448 8.54368153,13.5210715 C8.63445641,13.4838989 8.72680512,13.4478371 8.81985509,13.4130117 C8.85728084,13.3990937 8.8946381,13.3853393 8.93208084,13.3717952 C9.04310703,13.3316046 9.15538085,13.2931406 9.26860927,13.2564747 C9.51501151,13.1766841 9.78514282,13.2296836 9.9831335,13.3966637 L9.9831335,13.3966637 L12.4995,15.5189005 Z M18.4992143,21.75 C18.9134082,21.75 19.2491786,22.0857864 19.2491786,22.5 C19.2491786,22.9142136 18.9134082,23.25 18.4992143,23.25 L18.4992143,23.25 L15.4993572,23.25 C15.0851633,23.25 14.7493929,22.9142136 14.7493929,22.5 C14.7493929,22.0857864 15.0851633,21.75 15.4993572,21.75 L15.4993572,21.75 Z M15.6562451,14.8187844 L13.746121,16.4297324 L16.5515839,18.30013 L17.2869366,15.6274991 C16.9834354,15.4363632 16.6687549,15.2636866 16.3445736,15.1102955 C16.3312819,15.1032103 16.3176496,15.0968152 16.3039968,15.0904522 L16.3445736,15.1102955 C16.2293242,15.0557636 16.1128739,15.0036691 15.9952983,14.9540492 L15.6562451,14.8187844 Z M9.34287126,14.8188825 L9.00400756,14.9540019 L8.70289733,15.0871704 C8.68049475,15.097594 8.65814721,15.1081043 8.63585507,15.1187008 C8.54604844,15.1620712 8.45690531,15.2063673 8.36852469,15.2521366 L8.63585507,15.1187008 C8.53555819,15.1663766 8.43638277,15.2157975 8.33836099,15.266919 L8.36852469,15.2521366 C8.14493493,15.3679259 7.92622543,15.4931434 7.71294391,15.6275157 L8.44761787,18.2999956 L11.252879,16.4297324 L9.34287126,14.8188825 Z M12.4995,0 C15.8125558,0 18.4992143,2.68678644 18.4992143,6 C18.4992143,9.31321356 15.8125558,12 12.4995,12 C9.18644423,12 6.49978572,9.31321356 6.49978572,6 C6.49978572,2.68678644 9.18644423,0 12.4995,0 Z M8.22614368,4.58667518 L8.16984487,4.77112095 C8.05920806,5.16173231 8,5.57395176 8,6 C8,8.48528137 10.0147186,10.5 12.5,10.5 C14.8686253,10.5 16.8098264,8.6699793 16.9868429,6.3466982 C16.1000271,6.61483515 15.1783391,6.75078962 14.2497336,6.75000646 C12.0413227,6.75093681 9.91323146,5.97880787 8.22614368,4.58667518 Z M12.5,1.5 C11.0581298,1.5 9.77464622,2.17813418 8.95108807,3.23286388 C10.4049714,4.52816659 12.2896452,5.25083132 14.2500508,5.25000341 C15.1341855,5.25075099 16.0102202,5.10444277 16.843408,4.818167 C16.3227415,2.9050416 14.5754532,1.5 12.5,1.5 Z" id="Clients" fill="#134154" fill-rule="nonzero"></path>
    </g>
</svg>