<svg xmlns="http://www.w3.org/2000/svg" width="20" height="14" viewBox="0 0 20 14">
    <path fill="#0D3B4E" fill-rule="nonzero" d="M12.184.434a.595.595 0 0 1 .404.656l-.022.094-4 12.316a.595.595 0 0 1-1.154-.274l.022-.094 4-12.316a.595.595 0 0 1 .75-.382zM5.41 2.54a.595.595 0 0 1 .086.758l-.067.084-3.607 3.776 3.607 3.776a.595.595 0 0 1-.78.893l-.08-.07-4-4.188a.595.595 0 0 1-.065-.74l.065-.082 4-4.187a.595.595 0 0 1 .841-.02zm9.178 0a.595.595 0 0 1 .841.02l4 4.187c.22.23.22.592 0 .822l-4 4.187a.595.595 0 0 1-.86-.822l3.607-3.776-3.607-3.776a.595.595 0 0 1 .019-.842z"/>
</svg>
