<svg xmlns="http://www.w3.org/2000/svg" width="24" height="24" viewBox="0 0 24 24">
    <path fill="#0D3B4E" fill-rule="nonzero" d="M15.75 0A2.25 2.25 0 0 1 18 2.25v19.5A2.25 2.25 0 0 1 15.75 24h-7.5A2.25 2.25 0 0 1 6 21.75V2.25A2.25 2.25 0 0 1 8.25 0h7.5zM3 0a1.5 1.5 0 0 1 1.5 1.5v21A1.5 1.5 0 0 1 3 24H1.5A1.5 1.5 0 0 1 0 22.5v-21A1.5 1.5 0 0 1 1.5 0H3zm19.5 0A1.5 1.5 0 0 1 24 1.5v21a1.5 1.5 0 0 1-1.5 1.5H21a1.5 1.5 0 0 1-1.5-1.5v-21A1.5 1.5 0 0 1 21 0h1.5zm-6.75 1.5h-7.5a.75.75 0 0 0-.75.75v19.5c0 .414.336.75.75.75h7.5a.75.75 0 0 0 .75-.75V2.25a.75.75 0 0 0-.75-.75zM3 1.5H1.5v21H3v-21zm19.5 0H21v21h1.5v-21z"/>
</svg>
