<svg xmlns="http://www.w3.org/2000/svg" width="24" height="24" viewBox="0 0 24 24">
    <path fill="#0D3B4E" fill-rule="nonzero" d="M23.217 11.5c1.01 1 1.01 3 .191 3.9-.545.6-3.116 3.143-7.711 7.63a.76.76 0 0 1-.388.205l-3.79.75a.754.754 0 0 1-.892-.882l.758-3.75a.748.748 0 0 1 .207-.384l7.712-7.63c1.13-1.118 2.904-.839 3.913.161zm-2.84.9l-7.55 7.47-.49 2.424 2.45-.485 7.537-7.457c.514-.564.515-1.432.012-1.944l-.008-.008a1.39 1.39 0 0 0-1.952 0zM13.016 0c.603 0 1.181.237 1.607.659l2.903 2.872c.426.421.666.993.666 1.59V8.25c0 .414-.34.75-.758.75a.754.754 0 0 1-.758-.75V5.12c0-.198-.08-.388-.222-.529L13.552 1.72a.76.76 0 0 0-.535-.219H2.274a.755.755 0 0 0-.758.75v16.5c0 .413.34.75.758.75H7.58c.419 0 .758.335.758.75 0 .414-.34.75-.758.75H2.274C1.02 21 0 19.992 0 18.75V2.25C0 1.008 1.019 0 2.274 0zm-3.92 15c.418 0 .757.336.757.75s-.339.75-.758.75H3.79a.754.754 0 0 1-.758-.75c0-.414.34-.75.758-.75zm5.306-4.5c.418 0 .758.336.758.75s-.34.75-.758.75H3.79a.754.754 0 0 1-.758-.75c0-.414.34-.75.758-.75zm0-4.5c.418 0 .758.336.758.75s-.34.75-.758.75H3.79a.754.754 0 0 1-.758-.75c0-.414.34-.75.758-.75z"/>
</svg>
