<svg xmlns="http://www.w3.org/2000/svg" width="18" height="18" viewBox="0 0 18 18">
    <path fill="#0D3B4E" fill-rule="nonzero" d="M4.5 16.875C4.5 17.496 3.996 18 3.375 18h-2.25A1.125 1.125 0 0 1 0 16.875v-2.25c0-.621.504-1.125 1.125-1.125v-9A1.125 1.125 0 0 1 0 3.375v-2.25C0 .504.504 0 1.125 0h2.25C3.996 0 4.5.504 4.5 1.125h9C13.5.504 14.004 0 14.625 0h2.25C17.496 0 18 .504 18 1.125v2.25c0 .621-.504 1.125-1.125 1.125v9c.621 0 1.125.504 1.125 1.125v2.25c0 .621-.504 1.125-1.125 1.125h-2.25a1.125 1.125 0 0 1-1.125-1.125h-9zm-1.125-2.25h-2.25v2.25h2.25v-2.25zm13.5 0h-2.25v2.25h2.25v-2.25zM13.5 2.25h-9v1.125c0 .621-.504 1.125-1.125 1.125H2.25v9h1.125c.621 0 1.125.504 1.125 1.125v1.125h9v-1.125c0-.621.504-1.125 1.125-1.125h1.125v-9h-1.125A1.125 1.125 0 0 1 13.5 3.375V2.25zM3.375 1.125h-2.25v2.25h2.25v-2.25zm13.5 0h-2.25v2.25h2.25v-2.25z"/>
</svg>
