<svg xmlns="http://www.w3.org/2000/svg" width="24" height="24" viewBox="0 0 24 24">
    <path fill="#0D3B4E" fill-rule="nonzero" d="M6 22.5A1.5 1.5 0 0 1 4.5 24h-3A1.5 1.5 0 0 1 0 22.5v-3A1.5 1.5 0 0 1 1.5 18V6A1.5 1.5 0 0 1 0 4.5v-3A1.5 1.5 0 0 1 1.5 0h3A1.5 1.5 0 0 1 6 1.5h12A1.5 1.5 0 0 1 19.5 0h3A1.5 1.5 0 0 1 24 1.5v3A1.5 1.5 0 0 1 22.5 6v12a1.5 1.5 0 0 1 1.5 1.5v3a1.5 1.5 0 0 1-1.5 1.5h-3a1.5 1.5 0 0 1-1.5-1.5H6zm-1.5-3h-3v3h3v-3zm18 0h-3v3h3v-3zM18 3H6v1.5A1.5 1.5 0 0 1 4.5 6H3v12h1.5A1.5 1.5 0 0 1 6 19.5V21h12v-1.5a1.5 1.5 0 0 1 1.5-1.5H21V6h-1.5A1.5 1.5 0 0 1 18 4.5V3zM4.5 1.5h-3v3h3v-3zm18 0h-3v3h3v-3z"/>
</svg>
