<svg xmlns="http://www.w3.org/2000/svg" width="18" height="15" viewBox="0 0 18 15">
    <path fill="#0D3B4E" fill-rule="nonzero" d="M16.313 0C17.244 0 18 .775 18 1.73v11.54c0 .955-.756 1.73-1.688 1.73h-2.25a.57.57 0 0 1-.562-.577.57.57 0 0 0-.563-.577.57.57 0 0 0-.562.577.57.57 0 0 1-.563.577H6.189a.57.57 0 0 1-.563-.577.57.57 0 0 0-.563-.577.57.57 0 0 0-.562.577.57.57 0 0 1-.563.577h-2.25C.756 15 0 14.225 0 13.27V1.73C0 .776.756 0 1.688 0zm0 1.154H1.688a.57.57 0 0 0-.563.577v11.538a.57.57 0 0 0 .563.577H3.47a1.692 1.692 0 0 1 1.591-1.154c.735 0 1.36.482 1.592 1.154h4.692a1.692 1.692 0 0 1 1.591-1.154c.735 0 1.36.482 1.592 1.154h1.784a.57.57 0 0 0 .562-.577V1.731a.57.57 0 0 0-.563-.577zM6.188 2.308c1.398 0 2.53 1.162 2.53 2.596 0 .954-.5 1.788-1.248 2.239 1.545.545 2.655 2.049 2.655 3.819a.57.57 0 0 1-.563.576h-6.75a.57.57 0 0 1-.562-.576c0-1.77 1.11-3.274 2.655-3.82a2.606 2.606 0 0 1-1.249-2.238c0-1.434 1.133-2.596 2.531-2.596zm0 5.769c-1.361 0-2.496.991-2.757 2.308h5.513c-.26-1.317-1.396-2.308-2.757-2.308zm4.5-1.154h4.5a.57.57 0 0 1 .562.577.573.573 0 0 1-.471.57l-.091.007h-4.5a.57.57 0 0 1-.563-.577c0-.287.204-.525.471-.57l.091-.007h4.5zm-4.5-3.461c-.777 0-1.407.645-1.407 1.442 0 .797.63 1.442 1.407 1.442.776 0 1.406-.645 1.406-1.442 0-.797-.63-1.442-1.407-1.442zm7.875 1.153a.57.57 0 0 1 .562.577.573.573 0 0 1-.471.57l-.091.007h-3.376a.57.57 0 0 1-.562-.577c0-.286.204-.524.471-.57l.091-.007h3.376z"/>
</svg>
