<svg xmlns="http://www.w3.org/2000/svg" width="18" height="18" viewBox="0 0 18 18">
    <path fill="#0D3B4E" fill-rule="nonzero" d="M17.55 8.9l-.165-.397.013.013c.805.827.797 2.162.01 3.017l-.016.017-5.73 5.722a.563.563 0 0 1-.287.154l-2.816.563a.563.563 0 0 1-.663-.662l.563-2.813a.562.562 0 0 1 .154-.287l5.73-5.722c.839-.84 2.2-.84 3.206.396zm-2.41.4l-5.61 5.602-.364 1.818 1.82-.363 5.6-5.593c.382-.423.383-1.074.01-1.458l-.008-.007c-.4-.4-1.049-.399-1.449.001zM9.67 0c.448 0 .878.178 1.195.494l2.156 2.154c.317.316.495.745.495 1.193v2.346a.563.563 0 0 1-1.126 0V3.841c0-.15-.06-.292-.165-.398L10.069 1.29a.563.563 0 0 0-.398-.164H1.69a.563.563 0 0 0-.564.562v12.375c0 .31.253.563.564.563h3.942a.563.563 0 1 1 0 1.125H1.69c-.933 0-1.69-.756-1.69-1.688V1.687C0 .756.757 0 1.69 0zM2.816 11.25h3.942a.563.563 0 0 1 .092 1.117l-.092.008H2.816a.563.563 0 0 1-.091-1.118l.091-.007h3.942zm7.885-3.375a.563.563 0 0 1 .091 1.117L10.701 9H2.816a.563.563 0 0 1-.091-1.118l.091-.007h7.885zm0-3.375a.563.563 0 0 1 .091 1.118l-.091.007H2.816a.563.563 0 0 1-.091-1.118l.091-.007h7.885z"/>
</svg>
