<svg xmlns="http://www.w3.org/2000/svg" width="24" height="24" viewBox="0 0 24 24">
    <path fill="#0D3B4E" fill-rule="nonzero" d="M21.75 2C22.992 2 24 3.034 24 4.308v15.384C24 20.966 22.992 22 21.75 22h-3a.76.76 0 0 1-.75-.77.76.76 0 0 0-.75-.768.76.76 0 0 0-.75.769.76.76 0 0 1-.75.769h-7.5a.76.76 0 0 1-.75-.77.76.76 0 0 0-.75-.768.76.76 0 0 0-.75.769.76.76 0 0 1-.75.769h-3C1.008 22 0 20.966 0 19.692V4.308C0 3.034 1.008 2 2.25 2zm0 1.538H2.25a.76.76 0 0 0-.75.77v15.384c0 .425.336.77.75.77h2.378c.31-.897 1.143-1.539 2.122-1.539.98 0 1.813.642 2.122 1.539h6.256c.31-.897 1.143-1.539 2.122-1.539.98 0 1.813.642 2.122 1.539h2.378a.76.76 0 0 0 .75-.77V4.308a.76.76 0 0 0-.75-.77zM8.25 5.077c1.864 0 3.375 1.55 3.375 3.461a3.477 3.477 0 0 1-1.665 2.986c2.06.726 3.54 2.732 3.54 5.091a.76.76 0 0 1-.75.77h-9a.76.76 0 0 1-.75-.77c0-2.36 1.48-4.365 3.54-5.092a3.474 3.474 0 0 1-1.665-2.985c0-1.912 1.51-3.461 3.375-3.461zm0 7.692c-1.814 0-3.327 1.322-3.675 3.077h7.35c-.348-1.755-1.861-3.077-3.675-3.077zm12-1.538A.76.76 0 0 1 21 12a.76.76 0 0 1-.75.77h-6a.76.76 0 0 1-.75-.77.76.76 0 0 1 .75-.77zm-12-4.616c-1.036 0-1.875.861-1.875 1.923 0 1.063.84 1.924 1.875 1.924 1.036 0 1.875-.861 1.875-1.924 0-1.062-.84-1.923-1.875-1.923zm10.5 1.539a.76.76 0 0 1 .75.77.76.76 0 0 1-.75.768h-4.5a.76.76 0 0 1-.75-.769.76.76 0 0 1 .75-.77z"/>
</svg>
