<svg xmlns="http://www.w3.org/2000/svg" width="24" height="24" viewBox="0 0 24 24">
    <path fill="#0D3B4E" fill-rule="nonzero" d="M14.571 0c1.42 0 2.572 1.24 2.572 2.77l-.001.922h6c.474 0 .858.414.858.923 0 .51-.384.923-.857.923H20.57v15.693C20.571 22.76 19.421 24 18 24H6c-1.42 0-2.571-1.24-2.571-2.77L3.428 5.539H.858C.383 5.538 0 5.125 0 4.615s.384-.923.857-.923h6v-.923C6.857 1.24 8.008 0 9.43 0h5.142zm4.286 5.538H5.143v15.693c0 .51.384.923.857.923h12c.473 0 .857-.413.857-.923V5.538zM9.43 9.231c.473 0 .857.413.857.923v7.384c0 .51-.384.924-.857.924-.474 0-.858-.414-.858-.924v-7.384c0-.51.384-.923.858-.923zm5.142 0c.474 0 .858.413.858.923v7.384c0 .51-.384.924-.858.924-.473 0-.857-.414-.857-.924v-7.384c0-.51.384-.923.857-.923zm0-7.385H9.43c-.474 0-.858.413-.858.923v.923h6.858V2.77c0-.51-.384-.923-.858-.923z"/>
</svg>
