<svg xmlns="http://www.w3.org/2000/svg" width="18" height="18" viewBox="0 0 18 18">
    <path fill="#0D3B4E" fill-rule="nonzero" d="M10.929 0c1.065 0 1.928.93 1.928 2.077v.692h4.5c.355 0 .643.31.643.693 0 .382-.288.692-.643.692l-1.929-.001v11.77c0 1.147-.863 2.077-1.928 2.077h-9c-1.065 0-1.929-.93-1.929-2.077V4.153H.643c-.355 0-.643-.31-.643-.691 0-.383.288-.693.643-.693h4.499v-.692C5.143.93 6.007 0 7.073 0h3.857zm3.214 4.154H3.857v11.77c0 .381.288.691.643.691h9c.355 0 .643-.31.643-.692V4.153zM7.07 6.924c.355 0 .643.309.643.691v5.539c0 .382-.288.692-.643.692-.355 0-.642-.31-.642-.692V7.615c0-.382.287-.692.642-.692zm3.858 0c.355 0 .642.309.642.691v5.539c0 .382-.287.692-.642.692-.355 0-.643-.31-.643-.692V7.615c0-.382.288-.692.643-.692zm0-5.54H7.07c-.355 0-.642.31-.642.693v.692h5.142v-.692c0-.382-.287-.692-.642-.692z"/>
</svg>
