<svg xmlns="http://www.w3.org/2000/svg" width="24" height="24" viewBox="0 0 24 24">
    <path fill="#0D3B4E" fill-rule="nonzero" d="M14.136.211c.458-.429 1.224-.166 1.303.446l.604 4.694a.728.728 0 0 1-.038.343l-1.208 3.319h2.797c2.986 0 5.406 2.349 5.406 5.245 0 2.897-2.42 5.246-5.406 5.246h-.827C16.392 22.046 14.139 24 11.415 24H6.782c-2.986 0-5.407-2.348-5.407-5.245V9.762c0-.413.346-.749.773-.749H3.37l-.428-1.178c-1.003-.177-1.858-.823-2.26-1.71a6.26 6.26 0 0 1 0-5.686A.785.785 0 0 1 1.89.212c1.297 1.129 1.75 1.455 2.128 1.608l.096.036c.417.15.645.256 1.11.547.478.307.855.741 1.083 1.242.32.683.36 1.446.134 2.14l2.064 3.228h.028l1.651-4.54a.738.738 0 0 1 .013-.037l.238-.649a.747.747 0 0 1 .192-.29zm1.14 10.3H2.92v8.244c0 2.069 1.729 3.746 3.862 3.746h4.633c2.133 0 3.862-1.677 3.862-3.746v-8.243zm2.318 0h-.772v7.494h.772c2.133 0 3.861-1.677 3.861-3.747 0-2.069-1.728-3.746-3.861-3.746zm-6.365-4.403l-1.057 2.905h2.988l.726-1.996a4.497 4.497 0 0 1-2.657-.91zm-6.694 1.6l.474 1.305h1.678l-1.182-1.85a3.114 3.114 0 0 1-.97.545zM1.705 2.05a4.838 4.838 0 0 0 .377 3.44c.224.492.701.83 1.252.886l.068.003a.79.79 0 0 1 .2 0 1.546 1.546 0 0 0 1.247-.77.62.62 0 0 1 .069-.148 1.45 1.45 0 0 0-.02-1.203 1.416 1.416 0 0 0-.518-.6 3.37 3.37 0 0 0-.804-.397l-.048-.018c-.484-.178-.93-.455-1.822-1.193zm12.393.28l-2.266 2.123-.043.113a2.912 2.912 0 0 0 2.658.91l.041-.114-.39-3.032z"/>
</svg>
