<svg xmlns="http://www.w3.org/2000/svg" width="24" height="24" viewBox="0 0 24 24">
    <path fill="#0D3B4E" fill-rule="nonzero" d="M21.333 1C22.806 1 24 2.159 24 3.588V16.53c0 1.43-1.194 2.589-2.667 2.589l-5.587-.001.567 2.2H18c.378 0 .69.322.735.736l.006.106c0 .464-.332.841-.741.841H6.148c-.409 0-.74-.377-.74-.841 0-.465.331-.841.74-.841l1.694-.001.453-2.2H2.667C1.194 19.118 0 17.96 0 16.53V3.59C0 2.158 1.194 1 2.667 1h18.666zM13.92 19.117h-3.815l-.453 2.2h4.835l-.567-2.2zm7.414-16.396H2.667l-.132.01a.876.876 0 0 0-.762.857V16.53c0 .48.4.867.894.867h18.666a.88.88 0 0 0 .894-.867V3.59a.88.88 0 0 0-.894-.868z"/>
</svg>
