<svg xmlns="http://www.w3.org/2000/svg" width="18" height="17" viewBox="0 0 18 17">
    <g fill="#0D3B4E" fill-rule="nonzero">
        <path d="M4.611 17H13.5c.307 0 .556-.291.556-.65 0-.359-.25-.65-.556-.65H4.611c-.307 0-.555.291-.555.65 0 .359.248.65.555.65z"/>
        <path d="M7.783 12.978l-1.305-.26-.76 3.804 1.304.26zM11.484 12.694l-1.29.322.822 3.29 1.29-.322z"/>
        <path d="M2 0h14a2 2 0 0 1 2 2v10a2 2 0 0 1-2 2H2a2 2 0 0 1-2-2V2a2 2 0 0 1 2-2zm0 1.33l-.099.007A.67.67 0 0 0 1.33 2v10c0 .37.3.67.67.67h14c.37 0 .67-.3.67-.67V2c0-.37-.3-.67-.67-.67H2z"/>
    </g>
</svg>
