<svg xmlns="http://www.w3.org/2000/svg" width="24" height="24" viewBox="0 0 24 24">
    <path fill="#0D3B4E" fill-rule="nonzero" d="M16.748 0c.612 0 1.198.237 1.63.659l2.946 2.872c.433.421.676.993.676 1.59V15.75c0 1.242-1.034 2.25-2.308 2.25h-2.308v3.75c0 1.242-1.033 2.25-2.307 2.25H4.307C3.035 24 2 22.992 2 21.75V8.25C2 7.008 3.034 6 4.308 6h2.307V2.25c0-1.19.95-2.166 2.15-2.245L8.923 0zm-4.616 7.5H4.308a.76.76 0 0 0-.77.75v13.5c0 .414.345.75.77.75h10.769a.76.76 0 0 0 .77-.75V11.121a.74.74 0 0 0-.226-.53L12.676 7.72a.778.778 0 0 0-.544-.219zm4.616-6H8.923a.76.76 0 0 0-.77.75V6h3.98c.611 0 1.198.237 1.63.659L16.71 9.53c.433.421.676.993.676 1.59l-.001 5.379h2.308a.764.764 0 0 0 .763-.648l.007-.102V5.121a.74.74 0 0 0-.225-.53L17.29 1.72a.778.778 0 0 0-.543-.219z"/>
</svg>
