<svg xmlns="http://www.w3.org/2000/svg" width="15" height="18" viewBox="0 0 15 18">
    <path fill="#0D3B4E" fill-rule="nonzero" d="M10.784 0c.448 0 .877.178 1.193.494l2.154 2.154c.316.316.494.745.494 1.193v7.971c0 .932-.756 1.688-1.688 1.688H11.25v2.813c0 .931-.756 1.687-1.688 1.687H1.689A1.688 1.688 0 0 1 0 16.312V6.188C0 5.256.756 4.5 1.688 4.5h1.687V1.687c0-.882.678-1.607 1.542-1.68L5.063 0zM7.41 5.625H1.688a.563.563 0 0 0-.563.563v10.125c0 .31.252.562.563.562h7.875c.31 0 .562-.252.562-.563V8.341c0-.15-.06-.292-.164-.398L7.807 5.79a.561.561 0 0 0-.398-.164zm3.375-4.5H5.062a.563.563 0 0 0-.562.563V4.5h2.91c.447 0 .876.178 1.192.494l2.154 2.154c.316.316.494.745.494 1.193v4.034h1.688c.279 0 .511-.204.555-.471l.007-.091V3.84c0-.15-.06-.292-.164-.398L11.182 1.29a.561.561 0 0 0-.398-.164z"/>
</svg>
