<svg xmlns="http://www.w3.org/2000/svg" width="17" height="18" viewBox="0 0 17 18">
    <path fill="#0D3B4E" fill-rule="nonzero" d="M7.129 3.376c.303 0 .548.251.548.562 0 .31-.245.563-.548.563H1.645a.556.556 0 0 0-.548.562v11.25c0 .31.245.562.548.562h10.968a.556.556 0 0 0 .548-.562v-5.625c0-.31.246-.563.549-.563.303 0 .548.252.548.563v5.625c0 .932-.737 1.687-1.645 1.687H1.645C.737 18 0 17.245 0 16.313V5.063c0-.932.737-1.687 1.645-1.687H7.13zM16.358.659a2.291 2.291 0 0 1 0 3.182L9.378 11a.543.543 0 0 1-.31.16l-2.715.397a.556.556 0 0 1-.62-.636l.387-2.785a.568.568 0 0 1 .155-.318L13.255.66a2.155 2.155 0 0 1 3.103 0zm-2.327.795L7.18 8.481l-.259 1.857 1.81-.266 6.85-7.027a1.146 1.146 0 0 0 0-1.59 1.077 1.077 0 0 0-1.551 0z"/>
</svg>
