<svg xmlns="http://www.w3.org/2000/svg" width="24" height="24" viewBox="0 0 24 24">
    <path fill="#0D3B4E" fill-rule="nonzero" d="M10.145 4.5c.41 0 .742.337.742.75 0 .415-.332.75-.742.75h-7.42a.746.746 0 0 0-.741.75v15c0 .414.332.75.742.75h14.839c.41 0 .741-.336.741-.75v-7.5c0-.414.333-.75.742-.75.41 0 .742.336.742.75v7.5c0 1.243-.996 2.25-2.225 2.25H2.725C1.498 24 .5 22.993.5 21.75v-15c0-1.242.997-2.25 2.226-2.25h7.42zM22.631.88a3.023 3.023 0 0 1 0 4.242l-9.444 9.546a.739.739 0 0 1-.42.212l-3.671.53a.746.746 0 0 1-.84-.848l.525-3.712a.753.753 0 0 1 .21-.425L18.433.88a2.945 2.945 0 0 1 4.197 0zm-3.148 1.06l-9.268 9.37-.35 2.474 2.448-.354 9.269-9.368c.579-.586.579-1.536 0-2.122a1.473 1.473 0 0 0-2.099 0z"/>
</svg>
