<svg height="24" viewBox="0 0 24 24" width="24" xmlns="http://www.w3.org/2000/svg"><path d="m21.1256889 10.4994641c.7603501 0 1.4894922.3023561 2.0263002.8400088l.0573339.0585046c.5069222.5319036.790677 1.2392029.790677 1.9757901 0 .7603481-.3023568 1.4894883-.840011 2.0262949l-7.6298876 7.6298675c-.1046989.1046986-.2380462.1760637-.3832374.2051018l-3.7499447.749987c-.5247832.1049563-.9874663-.3577255-.8825097-.8825073l.749989-3.7499348c.0290382-.1451909.1004035-.2785378.2051024-.3832364l7.6294703-7.6294498c.5372253-.5380703 1.2663675-.8404264 2.0267176-.8404264zm0 1.499974c-.3621221 0-.7093811.1439991-.9656557.4006765l-7.4691915 7.4689688-.4849643 2.4243007 2.4243071-.4847916 7.4695776-7.469589c.2434474-.2430638.3855794-.5686175.399184-.9110387l.001076-.0541972c0-.362121-.1439996-.7093792-.4006776-.9656531l-.0474718-.0460105c-.2515658-.2327067-.5821679-.3626659-.9261838-.3626659zm-.8759871-11.9994381c.7036975 0 1.3319423.3230506 1.7445191.8289369.003709.00449792.007349.00911871.0109447.01379361l.0089006.01089093c.2938117.37074668.4732449.83626068.4849879 1.34323066l.0006145 6.05300457c0 .41420636-.3357815.74998697-.7499889.74998697-.4020249 0-.7301693-.31631927-.7491241-.71364943l-.0008649-.03633754-.0006907-5.68785667-7.2749016 5.59631286c-1.4389592 1.10695583-3.4350648 1.12191469-4.88903818.04491028l-.05944431-.04487518-7.27661591-5.59634796.00097791 11.6877524c0 .4020239.31632011.7301674.71365131.7491221l.03633764.0008649h8.99986744c.4142075 0 .749989.3357806.749989.749987 0 .4020238-.3163201.7301673-.7136513.7491221l-.0363377.0008648h-8.99986744c-1.22487063 0-2.22113757-.9787662-2.24935237-2.1968521l-.00061449-12.05290029c0-1.2248674.97876879-2.2211317 2.19685792-2.24934642zm-.3287018 1.499h-17.343l7.11215777 5.47042432c.90306803.69470802 2.15425293.70711352 3.06979693.03718324l.0496018-.03721835z" fill="#134154"/></svg>