<svg xmlns="http://www.w3.org/2000/svg" width="24" height="15" viewBox="0 0 24 15">
    <path fill="#0D3B4E" fill-rule="nonzero" d="M11.998.001c3.876-.059 8.192 2.375 11.381 5.882a2.414 2.414 0 0 1-.002 3.233c-3.186 3.504-7.482 5.948-11.366 5.883C8.1 15.064 3.8 12.619.62 9.113a2.414 2.414 0 0 1 .002-3.232C3.805 2.377 8.122-.058 11.998 0zm.013 1.5h-.025c-3.38-.056-7.33 2.17-10.252 5.386a.912.912 0 0 0-.002 1.22C4.65 11.321 8.58 13.556 12.011 13.5c3.406.057 7.333-2.177 10.254-5.39a.912.912 0 0 0 .002-1.22C19.34 3.672 15.39 1.446 12.011 1.502zm-.013 1.5a4.5 4.5 0 1 1 0 9 4.5 4.5 0 0 1 0-9zm0 1.5a3 3 0 1 0 0 6 3 3 0 0 0 0-6z"/>
</svg>
