<svg xmlns="http://www.w3.org/2000/svg" width="24" height="24" viewBox="0 0 24 24">
    <path fill="#0D3B4E" fill-rule="nonzero" d="M11.999 4.001c3.875-.059 8.191 2.375 11.381 5.882a2.414 2.414 0 0 1-.002 3.232C20.192 16.62 15.895 19.064 12.01 19h-.336C7.856 18.922 3.71 16.517.62 13.112A2.414 2.414 0 0 1 .622 9.88C3.805 6.377 8.122 3.942 11.999 4zm.012 1.5h-.025c-3.38-.056-7.33 2.17-10.252 5.386a.912.912 0 0 0-.001 1.22c2.916 3.213 6.846 5.448 10.278 5.392 3.406.056 7.334-2.177 10.255-5.39a.912.912 0 0 0 .002-1.22C19.34 7.672 15.39 5.446 12.011 5.502zm-.012 1.5a4.5 4.5 0 1 1 0 9 4.5 4.5 0 0 1 0-9zm0 1.5a3 3 0 1 0 0 6 3 3 0 0 0 0-6z"/>
</svg>
