<svg xmlns="http://www.w3.org/2000/svg" width="24" height="24" viewBox="0 0 24 24">
    <path fill="#0D3B4E" fill-rule="nonzero" d="M13.975 7.007v-1.16l-.003-.074a.246.246 0 0 1 .24-.275h2.834c.391 0 .708-.336.708-.75V.75c0-.414-.317-.75-.708-.75h-4.091c-3.547 0-5.12 2.42-5.12 5.608v1.4H5.708c-.392 0-.709.335-.709.749v3.998c0 .414.317.75.709.75h2.125V23.25c0 .414.318.75.709.75h4.724c.391 0 .708-.336.708-.75V12.505h2.929c.363 0 .668-.291.705-.673l.387-3.999c.043-.442-.285-.826-.705-.826h-3.316zm2.531 1.5l-.242 2.498h-2.997c-.392 0-.709.336-.709.75v10.746H9.251V11.755c0-.414-.317-.75-.708-.75H6.417V8.506h2.126c.391 0 .708-.335.708-.75V5.609c0-2.454 1.077-4.109 3.704-4.109h3.382V4h-2.126c-.063 0-.119.002-.18.01-.885.093-1.54.926-1.473 1.87v1.878c0 .414.317.75.709.75h3.24z"/>
</svg>
