<svg xmlns="http://www.w3.org/2000/svg" width="10" height="18" viewBox="0 0 10 18">
    <path fill="#0D3B4E" fill-rule="nonzero" d="M6.904 5.255v-.87l-.003-.055a.186.186 0 0 1 .185-.207h2.18a.554.554 0 0 0 .545-.562V.562A.554.554 0 0 0 9.266 0H6.119C3.391 0 2.18 1.814 2.18 4.206v1.05H.545A.554.554 0 0 0 0 5.817v2.998c0 .31.244.563.545.563H2.18v8.059c0 .31.244.562.545.562H6.36a.554.554 0 0 0 .545-.562v-8.06h2.253c.28 0 .514-.218.542-.504l.298-3a.556.556 0 0 0-.542-.619H6.904zM8.851 6.38l-.186 1.874H6.359a.554.554 0 0 0-.545.562v8.06H3.27v-8.06a.554.554 0 0 0-.545-.562H1.09V6.38h1.635a.554.554 0 0 0 .545-.562V4.206c0-1.84.828-3.081 2.85-3.081h2.6v1.874H7.087c-.049 0-.092.002-.138.007-.682.07-1.186.696-1.134 1.404v1.408c0 .31.244.562.545.562h2.492z"/>
</svg>
