<svg xmlns="http://www.w3.org/2000/svg" width="24" height="24" viewBox="0 0 24 24">
    <path fill="#0D3B4E" fill-rule="nonzero" d="M22.105 10.105c1.047 0 1.895.849 1.895 1.895v10.105A1.895 1.895 0 0 1 22.105 24h-7.579a1.895 1.895 0 0 1-1.894-1.895V12c0-1.046.848-1.895 1.894-1.895h7.58zm-12.631 3.79c1.046 0 1.894.848 1.894 1.894v6.316A1.895 1.895 0 0 1 9.474 24h-7.58A1.895 1.895 0 0 1 0 22.105V15.79c0-1.046.848-1.894 1.895-1.894h7.579zm0 1.503h-7.58a.392.392 0 0 0-.39.391v6.316c0 .217.174.392.39.392h7.58a.392.392 0 0 0 .391-.392V15.79a.392.392 0 0 0-.391-.391zm12.631-3.79h-7.579a.392.392 0 0 0-.391.392v10.105c0 .217.175.392.391.392h7.58a.392.392 0 0 0 .39-.392V12a.392.392 0 0 0-.39-.392zM9.474 0c1.046 0 1.894.848 1.894 1.895v8.842a1.895 1.895 0 0 1-1.894 1.895h-7.58A1.895 1.895 0 0 1 0 10.737V1.895C0 .848.848 0 1.895 0h7.579zm0 1.503h-7.58a.392.392 0 0 0-.39.392v8.842c0 .216.174.391.39.391h7.58a.392.392 0 0 0 .391-.391V1.895a.392.392 0 0 0-.391-.392zM22.105 0C23.152 0 24 .848 24 1.895v5.052a1.895 1.895 0 0 1-1.895 1.895h-7.579a1.895 1.895 0 0 1-1.894-1.895V1.895C12.632.848 13.48 0 14.526 0h7.58zm0 1.503h-7.579a.392.392 0 0 0-.391.392v5.052c0 .217.175.392.391.392h7.58a.392.392 0 0 0 .39-.392V1.895a.392.392 0 0 0-.39-.392z"/>
</svg>
