<svg xmlns="http://www.w3.org/2000/svg" width="18" height="18" viewBox="0 0 18 18">
    <path fill="#0D3B4E" fill-rule="nonzero" d="M16.579 7.579C17.364 7.579 18 8.215 18 9v7.579c0 .785-.636 1.421-1.421 1.421h-5.684a1.421 1.421 0 0 1-1.421-1.421V9c0-.785.636-1.421 1.42-1.421h5.685zM7.105 10.42c.785 0 1.421.636 1.421 1.421v4.737c0 .785-.636 1.421-1.42 1.421H1.42A1.421 1.421 0 0 1 0 16.579v-4.737c0-.785.636-1.42 1.421-1.42h5.684zm0 1.127H1.421a.294.294 0 0 0-.294.294v4.737c0 .162.132.294.294.294h5.684a.294.294 0 0 0 .294-.294v-4.737a.294.294 0 0 0-.294-.294zm9.474-2.842h-5.684A.294.294 0 0 0 10.6 9v7.579c0 .162.132.294.294.294h5.684a.294.294 0 0 0 .294-.294V9a.294.294 0 0 0-.294-.294zM7.105 0c.785 0 1.421.636 1.421 1.421v6.632c0 .784-.636 1.42-1.42 1.42H1.42A1.421 1.421 0 0 1 0 8.054V1.42C0 .636.636 0 1.421 0h5.684zm0 1.127H1.421a.294.294 0 0 0-.294.294v6.632c0 .162.132.293.294.293h5.684a.294.294 0 0 0 .294-.293V1.42a.294.294 0 0 0-.294-.294zM16.58 0C17.364 0 18 .636 18 1.421v3.79c0 .784-.636 1.42-1.421 1.42h-5.684a1.421 1.421 0 0 1-1.421-1.42V1.42C9.474.636 10.11 0 10.894 0h5.685zm0 1.127h-5.684a.294.294 0 0 0-.294.294v3.79c0 .162.132.293.294.293h5.684a.294.294 0 0 0 .294-.293V1.42a.294.294 0 0 0-.294-.294z"/>
</svg>
