<svg height="24" viewBox="0 0 24 24" width="24" xmlns="http://www.w3.org/2000/svg"><path d="m5.25 18c.41421356 0 .75.3357864.75.75v4.5c0 .4142136-.33578644.75-.75.75h-4.5c-.41421356 0-.75-.3357864-.75-.75v-4.5c0-.4142136.33578644-.75.75-.75zm9 0c.4142136 0 .75.3357864.75.75v4.5c0 .4142136-.3357864.75-.75.75h-4.5c-.41421356 0-.75-.3357864-.75-.75v-4.5c0-.4142136.33578644-.75.75-.75zm9 0c.4142136 0 .75.3357864.75.75v4.5c0 .4142136-.3357864.75-.75.75h-4.5c-.4142136 0-.75-.3357864-.75-.75v-4.5c0-.4142136.3357864-.75.75-.75zm-18.75011429 1.4993429h-3.0008v2.9995428h3.0008zm8.99988569 0h-3.0008v2.9995428h3.0008zm8.9998857 0h-3.0008v2.9995428h3.0008zm-17.2496571-10.4993429c.41421356 0 .75.33578644.75.75v4.5c0 .4142136-.33578644.75-.75.75h-4.5c-.41421356 0-.75-.3357864-.75-.75v-4.5c0-.41421356.33578644-.75.75-.75zm9 0c.4142136 0 .75.33578644.75.75v4.5c0 .4142136-.3357864.75-.75.75h-4.5c-.41421356 0-.75-.3357864-.75-.75v-4.5c0-.41421356.33578644-.75.75-.75zm9 0c.4142136 0 .75.33578644.75.75v4.5c0 .4142136-.3357864.75-.75.75h-4.5c-.4142136 0-.75-.3357864-.75-.75v-4.5c0-.41421356.3357864-.75.75-.75zm-18.75011429 1.4994571h-3.0008v2.9995429h3.0008zm8.99988569 0h-3.0008v2.9995429h3.0008zm8.9998857 0h-3.0008v2.9995429h3.0008zm-17.2496571-10.4994571c.41421356 0 .75.33578644.75.75v4.5c0 .41421356-.33578644.75-.75.75h-4.5c-.41421356 0-.75-.33578644-.75-.75v-4.5c0-.41421356.33578644-.75.75-.75zm9 0c.4142136 0 .75.33578644.75.75v4.5c0 .41421356-.3357864.75-.75.75h-4.5c-.41421356 0-.75-.33578644-.75-.75v-4.5c0-.41421356.33578644-.75.75-.75zm9 0c.4142136 0 .75.33578644.75.75v4.5c0 .41421356-.3357864.75-.75.75h-4.5c-.4142136 0-.75-.33578644-.75-.75v-4.5c0-.41421356.3357864-.75.75-.75zm-18.75011429 1.49957143h-3.0008v2.99954286h3.0008zm8.99988569 0h-3.0008v2.99954286h3.0008zm8.9998857 0h-3.0008v2.99954286h3.0008z" fill="#134154"/></svg>