<svg width="24" height="24" viewBox="0 0 24 24" xmlns="http://www.w3.org/2000/svg">
    <path d="M10.4 3.2a.8.8 0 0 1 .8.8v8.8H20a.8.8 0 0 1 .8.761v.039c0 5.744-4.656 10.4-10.4 10.4C4.656 24 0 19.344 0 13.6 0 7.856 4.656 3.2 10.4 3.2zm-.8 1.636-.064.006a8.801 8.801 0 1 0 9.622 9.622l.006-.064H10.4a.8.8 0 0 1-.8-.761V4.836zM13.6 0C19.344 0 24 4.656 24 10.4a.8.8 0 0 1-.8.8h-9.6a.8.8 0 0 1-.8-.8V.8a.8.8 0 0 1 .8-.8zm.8 1.636V9.6h7.964l-.006-.064a8.803 8.803 0 0 0-7.894-7.894l-.064-.006z" fill="#134154" fill-rule="nonzero"/>
</svg>
