<svg height="24" viewBox="0 0 24 24" width="24" xmlns="http://www.w3.org/2000/svg"><path d="m3.772 17.69c.43733333 0 .656-.224.656-.672v-4.096h5.2v4.096c0 .448.224.672.672.672h.72c.4373333 0 .656-.224.656-.672v-10.016c0-.448-.2186667-.672-.656-.672h-.72c-.448 0-.672.224-.672.672v4.144h-5.2v-4.144c0-.448-.21866667-.672-.656-.672h-.736c-.43733333 0-.656.224-.656.672v10.016c0 .448.21866667.672.656.672zm17.176 0c.448 0 .672-.224.672-.672v-.448c0-.4373333-.224-.656-.672-.656h-1.792v-8.912c0-.448-.2186667-.672-.656-.672h-.672c-.1706667 0-.32.02666667-.448.08s-.256.13866667-.384.256l-2.016 1.936c-.32.32-.3253333.63466667-.016.944l.304.32c.288.32.5973333.3306667.928.032l.496-.48c.0746667-.064.136-.13066667.184-.2s.0933333-.13066667.136-.184c.0426667-.064.08-.128.112-.192h.032c-.0106667.07466667-.016.15466667-.016.24v6.832h-1.808c-.4373333 0-.656.2186667-.656.656v.448c0 .448.2186667.672.656.672z" fill="#3e5b67"/></svg>