<svg height="24" viewBox="0 0 24 24" width="24" xmlns="http://www.w3.org/2000/svg"><path d="m3.772 17.882c.43733333 0 .656-.224.656-.672v-4.096h5.2v4.096c0 .448.224.672.672.672h.72c.4373333 0 .656-.224.656-.672v-10.016c0-.448-.2186667-.672-.656-.672h-.72c-.448 0-.672.224-.672.672v4.144h-5.2v-4.144c0-.448-.21866667-.672-.656-.672h-.736c-.43733333 0-.656.224-.656.672v10.016c0 .448.21866667.672.656.672zm17.864 0c.448 0 .672-.224.672-.672v-.448c0-.4373333-.224-.656-.672-.656h-4.688c.0106667-.352.1493333-.672.416-.96s.592-.568.976-.84.7973333-.552 1.24-.84.8533333-.6106667 1.232-.968.6933333-.7626667.944-1.216.376-.984.376-1.592c0-.53333333-.0986667-1.008-.296-1.424s-.4666667-.768-.808-1.056-.736-.50666667-1.184-.656-.9173333-.224-1.408-.224c-.4693333 0-.8853333.05866667-1.248.176s-.6853333.26133333-.968.432-.52.35733333-.712.56-.352.384-.48.544c-.2346667.33066667-.176.62933333.176.896l.432.336c.16.13866667.32.18666667.48.144s.3146667-.13866667.464-.288c.0746667-.08533333.1653333-.17866667.272-.28s.2293333-.19466667.368-.28.296-.15466667.472-.208.3653333-.08.568-.08c.48 0 .888.13866667 1.224.416s.504.66666667.504 1.168c0 .3733333-.1306667.712-.392 1.016s-.5893333.6026667-.984.896-.8213333.5946667-1.28.904-.8853333.6613333-1.28 1.056-.7226667.8453333-.984 1.352-.392 1.1013333-.392 1.784v.336c0 .224.0666667.392.2.504s.3066667.168.52.168z" fill="#3e5b67"/></svg>