<svg height="24" viewBox="0 0 24 24" width="24" xmlns="http://www.w3.org/2000/svg"><path d="m3.492 17.69c.43733333 0 .656-.224.656-.672v-4.096h5.2v4.096c0 .448.224.672.672.672h.72c.4373333 0 .656-.224.656-.672v-10.016c0-.448-.2186667-.672-.656-.672h-.72c-.448 0-.672.224-.672.672v4.144h-5.2v-4.144c0-.448-.21866667-.672-.656-.672h-.736c-.43733333 0-.656.224-.656.672v10.016c0 .448.21866667.672.656.672zm14.36.192c.64 0 1.208-.104 1.704-.312s.9146667-.4826667 1.256-.824.6-.7386667.776-1.192.264-.92.264-1.4c0-.4906667-.088-.928-.264-1.312s-.408-.7146667-.696-.992-.6186667-.5013333-.992-.672-.7573333-.2826667-1.152-.336l2.48-2.864c.1173333-.11733333.1973333-.24.24-.368s.064-.27733333.064-.448v-.176c0-.43733333-.224-.656-.672-.656h-5.6c-.4373333 0-.656.224-.656.672v.448c0 .43733333.2186667.656.656.656h3.168c.128 0 .2346667-.00533333.32-.016.1066667-.01066667.192-.02133333.256-.032v.032l-.3191111.32c-.0557037.05688889-.1173333.12088889-.1848889.192-.1013333.10666667-.2053333.224-.312.352l-1.744 2.064c-.2453333.2773333-.2933333.5653333-.144.864l.064.128c.1493333.3093333.3946667.464.736.464h.24c.3306667 0 .6426667.0346667.936.104s.552.176.776.32.4.328.528.552.192.4853333.192.784c0 .4906667-.192.896-.576 1.216s-.8746667.48-1.472.48c-.4586667 0-.8613333-.0826667-1.208-.248s-.6266667-.3226667-.84-.472c-.1813333-.1173333-.3493333-.168-.504-.152s-.2906667.1146667-.408.296l-.32.496c-.1173333.1706667-.168.336-.152.496s.1093333.304.28.432c.1386667.1066667.3146667.224.528.352s.456.248.728.36.5786667.2053333.92.28.7093333.112 1.104.112z" fill="#3e5b67"/></svg>