<svg enable-background="new 0 0 24 24" viewBox="0 0 24 24" xmlns="http://www.w3.org/2000/svg"><g fill="#3e5b67"><path d="m13.9 15c-.4 0-.7-.2-.7-.7v-.2c0-.3.1-.6.2-.8l4.5-6.3c.2-.3.4-.4.8-.4h1.2c.4 0 .7.2.7.7v6h.8c.4 0 .7.2.7.7v.4c0 .4-.2.7-.5.7h-.9v2.3c0 .4-.2.7-.7.7h-.7c-.4 0-.7-.2-.7-.7v-2.4zm4.7-1.8v-3.5c0-.1 0-.3 0-.4s0-.3 0-.4 0-.3 0-.4c-.1.1-.1.2-.2.4-.1.1-.1.2-.2.4-.1.1-.1.2-.2.3l-2.6 3.6z"/><path d="m2.4 7.2c0-.4.2-.7.7-.7h.7c.4 0 .7.2.7.7v4.1h5.2v-4.1c0-.4.2-.7.7-.7h.6c.4 0 .7.2.7.7v10c0 .4-.2.7-.7.7h-.7c-.4 0-.7-.2-.7-.7v-4.1h-5.2v4.1c0 .4-.2.7-.7.7h-.7c-.4 0-.7-.2-.7-.7v-10z"/></g></svg>