<svg xmlns="http://www.w3.org/2000/svg" width="24" height="18" viewBox="0 0 24 18">
    <path fill="#0D3B4E" fill-rule="nonzero" d="M16.758.39a.9.9 0 0 1 1.484 1.02l-.891 1.295c2.176 1.043 4.273 2.648 6.028 4.578a2.414 2.414 0 0 1-.002 3.233c-3.186 3.504-7.482 5.948-11.366 5.883-1.198.02-2.431-.196-3.658-.605L7.242 17.41a.9.9 0 0 1-1.484-1.02l.888-1.29c-2.18-1.045-4.273-2.655-6.026-4.587a2.414 2.414 0 0 1 .002-3.232c3.183-3.504 7.5-5.939 11.376-5.88 1.19-.018 2.42.199 3.646.609zm-.27 3.57l-1.25 1.818a4.5 4.5 0 0 1-4.996 7.267l-.998 1.452c.938.275 1.87.417 2.767.402 3.406.057 7.333-2.177 10.254-5.39a.912.912 0 0 0 .002-1.22c-1.688-1.855-3.716-3.381-5.778-4.33zM12.012 2.9h-.025c-3.38-.056-7.33 2.17-10.252 5.386a.912.912 0 0 0-.002 1.22c1.685 1.856 3.708 3.386 5.777 4.336l1.25-1.818a4.5 4.5 0 0 1 4.997-7.268l.998-1.454c-.934-.275-1.858-.417-2.743-.402zm2.35 4.151L11.12 11.77a3 3 0 0 0 3.242-4.717zM11.999 5.9a3 3 0 0 0-2.362 4.85l3.244-4.718a3 3 0 0 0-.882-.132z"/>
</svg>
