<svg xmlns="http://www.w3.org/2000/svg" width="24" height="24" viewBox="0 0 24 24">
    <path fill="#0D3B4E" fill-rule="nonzero" d="M16.759 3.395a.894.894 0 0 1 1.251-.235c.41.285.514.852.232 1.266l-.89 1.31c2.176 1.054 4.273 2.677 6.028 4.629a2.461 2.461 0 0 1-.002 3.269c-3.186 3.544-7.483 6.015-11.367 5.95-1.197.02-2.43-.199-3.657-.612l-1.112 1.633a.894.894 0 0 1-1.252.235.917.917 0 0 1-.231-1.266l.887-1.304C4.466 17.213 2.373 15.585.62 13.63a2.461 2.461 0 0 1 .002-3.268c3.183-3.543 7.5-6.006 11.377-5.946 1.189-.018 2.42.2 3.646.615zm-.27 3.609l-1.25 1.839A4.562 4.562 0 0 1 16.499 12c0 2.513-2.015 4.55-4.5 4.55a4.443 4.443 0 0 1-1.756-.358l-.998 1.468c.938.278 1.869.422 2.766.407 3.406.057 7.334-2.202 10.255-5.451a.93.93 0 0 0 .002-1.233c-1.688-1.877-3.716-3.42-5.779-4.38zm-4.478-1.07h-.025c-3.38-.057-7.33 2.195-10.252 5.446a.93.93 0 0 0-.001 1.234c1.684 1.877 3.707 3.424 5.776 4.385l1.251-1.84A4.562 4.562 0 0 1 7.498 12c0-2.513 2.015-4.55 4.5-4.55.624 0 1.219.128 1.759.36l.998-1.47c-.935-.278-1.859-.421-2.744-.406zm2.352 4.198l-3.243 4.77c.278.086.573.132.879.132 1.656 0 3-1.358 3-3.034 0-.704-.238-1.353-.636-1.868zm-2.364-1.166c-1.657 0-3 1.359-3 3.034 0 .706.238 1.355.637 1.87L12.88 9.1a2.969 2.969 0 0 0-.881-.134z"/>
</svg>
