<svg xmlns="http://www.w3.org/2000/svg" width="24" height="24" viewBox="0 0 24 24">
    <path fill="#0D3B4E" fill-rule="nonzero" d="M20.25 13.196c.414 0 .75.338.75.754v8.296a.752.752 0 0 1-.75.754h-6a.752.752 0 0 1-.75-.754v-6.033a.752.752 0 0 0-.75-.755h-1.5a.752.752 0 0 0-.75.755v6.033a.752.752 0 0 1-.75.754h-6a.752.752 0 0 1-.75-.754V13.95c0-.416.336-.754.75-.754s.75.338.75.754v7.542H9v-5.28a2.256 2.256 0 0 1 2.25-2.262h1.5A2.256 2.256 0 0 1 15 16.213v5.279h4.5V13.95c0-.416.336-.754.75-.754zM12 1c.597 0 1.17.239 1.591.663l10.19 10.246a.757.757 0 0 1 0 1.066.747.747 0 0 1-1.061 0L12.53 2.729a.748.748 0 0 0-1.06 0L1.28 12.976a.747.747 0 0 1-1.06 0 .757.757 0 0 1 0-1.066L10.409 1.663A2.244 2.244 0 0 1 12 1z"/>
</svg>
