<svg xmlns="http://www.w3.org/2000/svg" width="24" height="24" viewBox="0 0 24 24">
    <path fill="#0D3B4E" fill-rule="nonzero" d="M21.596 0A2.404 2.404 0 0 1 24 2.404v19.192A2.404 2.404 0 0 1 21.596 24H2.404A2.404 2.404 0 0 1 0 21.596V2.404A2.404 2.404 0 0 1 2.404 0h19.192zm0 1.427H2.404a.977.977 0 0 0-.977.977v19.192c0 .54.437.977.977.977h19.192c.54 0 .977-.437.977-.977V2.404a.977.977 0 0 0-.977-.977zm-6.967 8.794a1.583 1.583 0 0 1 1.3.705l4.48 6.757a.713.713 0 0 1-.595 1.108H5.948a.713.713 0 0 1-.594-1.11l2.947-4.419a1.58 1.58 0 0 1 2.305-.36l.837.67 1.873-2.675c.299-.428.79-.682 1.313-.676zm-.014 1.426c-.052 0-.1.025-.13.068l-2.31 3.299a.713.713 0 0 1-1.03.148l-1.431-1.146a.154.154 0 0 0-.225.036L7.28 17.364h11.204l-3.743-5.648a.155.155 0 0 0-.127-.069zm-8.26-4.846a1.292 1.292 0 1 1 0 2.584 1.292 1.292 0 0 1 0-2.584z"/>
</svg>
