<svg xmlns="http://www.w3.org/2000/svg" width="19" height="19" viewBox="0 0 19 19">
    <path fill="#0D3B4E" fill-rule="nonzero" d="M16.687.545c.996 0 1.804.807 1.804 1.803v14.394c0 .995-.808 1.803-1.804 1.803H2.294A1.803 1.803 0 0 1 .49 16.742V2.348c0-.996.807-1.803 1.803-1.803h14.393zm0 1.07H2.294a.733.733 0 0 0-.733.733v14.394c0 .404.328.733.733.733h14.393a.733.733 0 0 0 .733-.733V2.348a.733.733 0 0 0-.733-.733zM11.463 8.21c.392.004.756.202.975.53l3.359 5.067a.535.535 0 0 1-.446.83H4.95a.535.535 0 0 1-.445-.831l2.21-3.315a1.185 1.185 0 0 1 1.73-.27l.627.503 1.404-2.006c.225-.322.593-.512.986-.508zm-.012 1.07a.117.117 0 0 0-.097.05l-1.732 2.475a.535.535 0 0 1-.772.11l-1.074-.858a.115.115 0 0 0-.169.027l-1.656 2.484h8.403l-2.807-4.236a.116.116 0 0 0-.096-.052zM5.257 5.645a.97.97 0 1 1 0 1.939.97.97 0 0 1 0-1.939z"/>
</svg>
