<svg height="24" viewBox="0 0 24 24" width="24" xmlns="http://www.w3.org/2000/svg"><path d="m12 0c6.627417 0 12 5.372583 12 12s-5.372583 12-12 12-12-5.372583-12-12 5.372583-12 12-12zm0 1.5c-5.79898987 0-10.5 4.70101013-10.5 10.5 0 5.7989899 4.70101013 10.5 10.5 10.5 5.7989899 0 10.5-4.7010101 10.5-10.5 0-5.79898987-4.7010101-10.5-10.5-10.5zm-.75 8.25c.7796961 0 1.4204487.5948881 1.4931334 1.35554l.0068666.14446v3.75c0 .3796958.2821539.693491.6482294.7431534l.1017706.0068466h.75c.4142136 0 .75.3357864.75.75 0 .3796958-.2821539.693491-.6482294.7431534l-.1017706.0068466h-.75c-1.190864 0-2.1656449-.9251616-2.2448092-2.0959512l-.0051908-.1540488v-3.75h-.75c-.4142136 0-.75-.3357864-.75-.75 0-.3796958.2821539-.69349096.6482294-.74315338l.1017706-.00684662zm.375-3.75.1225811.00660135c.563658.06107879 1.0024189.53849966 1.0024189 1.11839865 0 .62132034-.5036797 1.125-1.125 1.125s-1.125-.50367966-1.125-1.125c0-.57989899.4387609-1.05731986 1.0024189-1.11839865z" fill="#134154"/></svg>