<svg xmlns="http://www.w3.org/2000/svg" width="24" height="24" viewBox="0 0 24 24">
  <path fill="#0D3B4E" d="M6.3100889,7.581882 C8.24630251,5.61551664 11.3496553,5.48963897 13.4347902,7.29289107 C15.5199251,9.09614316 15.8848416,12.2214257 14.2725683,14.467939 C14.0289544,14.8073863 13.5598961,14.8824522 13.2248972,14.6356033 C12.8898983,14.3887545 12.8158161,13.9134676 13.05943,13.5740203 C14.2110538,11.969368 13.9503991,9.73702327 12.4610171,8.44898606 C10.971635,7.16094885 8.75495444,7.25086147 7.37140107,8.65595971 L7.37140107,8.65595971 L2.59835787,13.4933971 C1.1338848,14.9773168 1.1338848,17.383226 2.59835787,18.8671457 C4.06283094,20.3510655 6.43721091,20.3510655 7.90168398,18.8671457 L7.90168398,18.8671457 L8.83368157,17.9227722 C9.12657403,17.6259905 9.60144654,17.6259905 9.894339,17.9227722 C10.1872315,18.219554 10.1872315,18.7007323 9.894339,18.9975141 L9.894339,18.9975141 L8.96234141,19.9418876 C6.91208342,22.0193708 3.58795843,22.0193708 1.53770044,19.9418876 C-0.512557555,17.8644043 -0.512557555,14.4961385 1.53764489,12.4187116 L1.53764489,12.4187116 Z M15.0376655,4.05811242 C17.0879235,1.98062919 20.4120485,1.98062919 22.4623065,4.05811242 C24.5125645,6.13559565 24.5125645,9.50386148 22.4623065,11.5813447 L22.4623065,11.5813447 L17.6897505,16.4172748 C15.7531502,18.3827894 12.6502056,18.5079052 10.5655946,16.7045324 C8.48098354,14.9011597 8.11635771,11.776289 9.72843776,9.53003571 C9.97205099,9.1905879 10.4411092,9.11552106 10.7761086,9.36236922 C11.1111079,9.60921738 11.185191,10.0845042 10.9415778,10.423952 C9.79009205,12.0284186 10.0505391,14.2604691 11.539547,15.5485925 C13.0285549,16.8367159 15.2449438,16.7473475 16.6286614,15.3429707 L16.6286614,15.3429707 L21.4016491,10.5066029 C22.8661221,9.02268317 22.8661221,6.61677396 21.4016491,5.13285425 C19.937176,3.64893454 17.562796,3.64893454 16.098323,5.13285425 L16.098323,5.13285425 L15.3483249,5.89281149 C15.0554324,6.18959325 14.5805599,6.18959325 14.2876675,5.89281149 C13.994775,5.59602973 13.994775,5.11485142 14.2876675,4.81806966 L14.2876675,4.81806966 Z"/>
</svg>
