<svg xmlns="http://www.w3.org/2000/svg" width="18" height="15" viewBox="0 0 18 15">
    <path fill="#0D3B4E" fill-rule="nonzero" d="M4.733 3.761a3.938 3.938 0 0 1 5.971 5.097.562.562 0 1 1-.91-.661 2.813 2.813 0 0 0-4.265-3.64l-3.58 3.58a2.813 2.813 0 0 0 3.977 3.978l.7-.7a.562.562 0 1 1 .795.796l-.7.699a3.938 3.938 0 0 1-5.568-5.568zm6.545-2.608a3.938 3.938 0 0 1 5.569 5.569l-3.58 3.58a3.937 3.937 0 0 1-5.97-5.099.563.563 0 0 1 .91.662 2.812 2.812 0 0 0 4.265 3.641l3.58-3.58a2.813 2.813 0 1 0-3.978-3.977l-.563.562a.562.562 0 1 1-.795-.795z"/>
</svg>
