<svg xmlns="http://www.w3.org/2000/svg" width="24" height="24" viewBox="0 0 24 24">
  <path fill="#0D3B4E" d="M3,18 C4.65685425,18 6,19.3431458 6,21 C6,22.6568542 4.65685425,24 3,24 C1.34314575,24 0,22.6568542 0,21 C0,19.3431458 1.34314575,18 3,18 Z M3,19.5 C2.17157288,19.5 1.5,20.1715729 1.5,21 C1.5,21.8284271 2.17157288,22.5 3,22.5 C3.82842712,22.5 4.5,21.8284271 4.5,21 C4.5,20.1715729 3.82842712,19.5 3,19.5 Z M23.25,21 C23.6642136,21 24,21.3357864 24,21.75 C24,22.1642136 23.6642136,22.5 23.25,22.5 L23.25,22.5 L8.25,22.5 C7.83578644,22.5 7.5,22.1642136 7.5,21.75 C7.5,21.3357864 7.83578644,21 8.25,21 L8.25,21 Z M3,9 C4.65685425,9 6,10.3431458 6,12 C6,13.6568542 4.65685425,15 3,15 C1.34314575,15 0,13.6568542 0,12 C0,10.3431458 1.34314575,9 3,9 Z M3,10.5 C2.17157288,10.5 1.5,11.1715729 1.5,12 C1.5,12.8284271 2.17157288,13.5 3,13.5 C3.82842712,13.5 4.5,12.8284271 4.5,12 C4.5,11.1715729 3.82842712,10.5 3,10.5 Z M23.25,12 C23.6642136,12 24,12.3357864 24,12.75 C24,13.1642136 23.6642136,13.5 23.25,13.5 L23.25,13.5 L8.25,13.5 C7.83578644,13.5 7.5,13.1642136 7.5,12.75 C7.5,12.3357864 7.83578644,12 8.25,12 L8.25,12 Z M3,0 C4.65685425,0 6,1.34314575 6,3 C6,4.65685425 4.65685425,6 3,6 C1.34314575,6 0,4.65685425 0,3 C0,1.34314575 1.34314575,0 3,0 Z M3,1.5 C2.17157288,1.5 1.5,2.17157288 1.5,3 C1.5,3.82842712 2.17157288,4.5 3,4.5 C3.82842712,4.5 4.5,3.82842712 4.5,3 C4.5,2.17157288 3.82842712,1.5 3,1.5 Z M23.25,3 C23.6642136,3 24,3.33578644 24,3.75 C24,4.16421356 23.6642136,4.5 23.25,4.5 L23.25,4.5 L8.25,4.5 C7.83578644,4.5 7.5,4.16421356 7.5,3.75 C7.5,3.33578644 7.83578644,3 8.25,3 L8.25,3 Z"/>
</svg>
