<svg height="24" viewBox="0 0 24 24" width="24" xmlns="http://www.w3.org/2000/svg"><path d="m12 0c3.2805714 0 5.9462114 2.6328343 5.9991962 5.90077903l.0008038.09922097.0006464 2.29225909c1.8408729 1.64794359 2.9993536 4.04255341 2.9993536 6.70774091 0 4.9705627-4.0294373 9-9 9-4.97056275 0-9-4.0294373-9-9 0-2.6656647 1.15889561-5.06065483 3.00034248-6.70862604l-.00034248-2.29137396c0-3.3137085 2.6862915-6 6-6zm0 7.5c-4.14213562 0-7.5 3.3578644-7.5 7.5s3.35786438 7.5 7.5 7.5c4.1421356 0 7.5-3.3578644 7.5-7.5s-3.3578644-7.5-7.5-7.5zm0 5.25c.4020308 0 .73018.3163248.7491351.7136618l.0008649.0363382v3c0 .4142136-.3357864.75-.75.75-.4020308 0-.73018-.3163248-.7491351-.7136618l-.0008649-3.0363382c0-.4142136.3357864-.75.75-.75zm0-11.25c-2.46042856 0-4.45965857 1.97462573-4.49939713 4.42558427l-.00080956 1.27857506c1.32382686-.76583942 2.86082919-1.20415933 4.50020669-1.20415933 1.6397903 0 3.1771539.4385407 4.5012068 1.20473796l-.0012068-1.20473796c0-2.48528137-2.0147186-4.5-4.5-4.5z" fill="#0d3b4e"/></svg>