<svg height="24" viewBox="0 0 24 24" width="24" xmlns="http://www.w3.org/2000/svg"><path d="m5.25 0c2.87049997 0 5.202935 2.30372999 5.2492966 5.16318161l.0007034.08681835-.0002067 1.95415933c1.3238269-.76583942 2.8608292-1.20415933 4.5002067-1.20415933 4.9705627 0 9 4.02943724 9 9.00000004s-4.0294373 9-9 9-9-4.0294372-9-9c0-2.6656647 1.15889561-5.06065485 3.00034248-6.70862607l-.00034248-3.04137397c0-2.07106778-1.6789322-3.74999996-3.75-3.74999996-2.05035712 0-3.71638214 1.64552143-3.74949761 3.68798685l-.00050239 4.5620132c0 .41421355-.33578644.74999995-.75.74999995-.40203081 0-.73018001-.3163247-.74913513-.71366178l-.00086487-4.53633826c0-2.89949492 2.35050508-5.24999996 5.25-5.24999996zm9.75 7.49999997c-4.1421356 0-7.5 3.35786443-7.5 7.50000003 0 4.1421357 3.3578644 7.5 7.5 7.5s7.5-3.3578643 7.5-7.5c0-4.1421356-3.3578644-7.50000003-7.5-7.50000003zm0 5.25000003c.4020308 0 .73018.3163248.7491351.7136618l.0008649.0363382v3c0 .4142136-.3357864.75-.75.75-.4020308 0-.73018-.3163248-.7491351-.7136618l-.0008649-3.0363382c0-.4142136.3357864-.75.75-.75z" fill="#0d3b4e"/></svg>