<svg xmlns="http://www.w3.org/2000/svg" width="24" height="24" viewBox="0 0 24 24">
    <path fill="#0D3B4E" fill-rule="nonzero" d="M14.424 1.001c1.202.061 2.13 1.104 2.077 2.299v4.6a.758.758 0 0 1-.75.767A.758.758 0 0 1 15 7.9V3.265c.018-.386-.274-.713-.614-.732H2.152c-.377.019-.668.346-.65.767v18.435c-.018.386.273.713.613.732H14.35c.377-.019.669-.346.65-.767v-4.6c0-.423.337-.767.75-.767.415 0 .75.344.75.767v4.565A2.223 2.223 0 0 1 14.387 24l-12.31-.001C.876 23.937-.05 22.894.002 21.7L.003 3.335A2.223 2.223 0 0 1 2.115 1l12.31.001zm5.607 7.128l3.75 3.833a.766.766 0 0 1 .067.08l-.068-.08a.767.767 0 0 1 .22.542v.018c0 .02-.002.04-.004.06l.004-.078a.788.788 0 0 1-.152.462l-.004.007-.064.073-3.75 3.834c-.292.299-.767.299-1.06 0a.779.779 0 0 1 0-1.085l2.47-2.525H7.502a.758.758 0 0 1-.75-.766c0-.423.335-.767.75-.767h13.937L18.97 9.213a.779.779 0 0 1 0-1.084c.293-.3.768-.3 1.06 0z"/>
</svg>
