<svg xmlns="http://www.w3.org/2000/svg" width="18" height="17" viewBox="0 0 18 17">
    <path fill="#0D3B4E" fill-rule="nonzero" d="M10.818 0c.852.043 1.52.733 1.557 1.554V5.1a.565.565 0 0 1-.562.567.565.565 0 0 1-.562-.567V1.674c.013-.285-.206-.527-.46-.54l-9.177-.001c-.283.014-.501.256-.487.567l-.001 13.626c-.013.285.206.527.46.54l9.176.001c.283-.014.502-.256.489-.567v-3.4c0-.313.251-.567.562-.567.31 0 .563.254.563.567l-.001 3.374c.04.91-.655 1.68-1.585 1.726H1.558a1.641 1.641 0 0 1-1.556-1.7V1.726A1.652 1.652 0 0 1 1.586 0h9.232zm4.205 5.269l2.812 2.833.032.034.006.009.006.007.011.016.027.038c.01.016.019.033.027.051l.014.03a.566.566 0 0 1 .041.19v.072l-.003.017-.01.061a.612.612 0 0 1-.008.033l-.02.058a.568.568 0 0 1-.063.115l-.004.005-.056.066-2.812 2.833a.56.56 0 0 1-.795 0 .57.57 0 0 1 0-.801l1.852-1.867H5.626a.565.565 0 0 1-.562-.566c0-.313.252-.567.562-.567H16.08L14.228 6.07a.57.57 0 0 1 0-.801.56.56 0 0 1 .795 0zm2.812 2.833l.055.066-.017-.023-.038-.043z"/>
</svg>
