<svg height="24" viewBox="0 0 24 24" width="24" xmlns="http://www.w3.org/2000/svg"><path d="m6.704 17.544c.448 0 .832-.08 1.152-.24s.58666667-.336.8-.528c.24533333-.224.448-.48.608-.768h.032c-.01066667.0213333-.016.0533333-.016.096-.01066667.0426667-.016.128-.016.256v.32c0 .448.21866667.672.656.672h.544c.448 0 .672-.224.672-.672v-4.432c0-1.0346667-.296-1.8346667-.888-2.4-.592-.56533333-1.42133333-.848-2.488-.848-.608 0-1.13866667.07733333-1.592.232s-.81333333.30133333-1.08.44c-.37333333.20266667-.45866667.5013333-.256.896l.16.304c.18133333.3626667.48.4533333.896.272.192-.1066667.43733333-.2106667.736-.312s.61866667-.152.96-.152c.416 0 .77333333.1066667 1.072.32s.448.5866667.448 1.12v.192h-.336c-.30933333 0-.64.0133333-.992.04s-.704.0773333-1.056.152-.69066667.176-1.016.304-.616.296-.872.504-.45866667.4586667-.608.752-.224.6373333-.224 1.032c0 .3733333.072.7093333.216 1.008s.33866667.5546667.584.768.53066667.3786667.856.496.67466667.176 1.048.176zm.544-1.552c-.40533333 0-.712-.1093333-.92-.328s-.312-.4666667-.312-.744c0-.2986667.096-.5386667.288-.72s.42933333-.32.712-.416.584-.16.904-.192.608-.048.864-.048h.336v.304c0 .2453333-.04533333.496-.136.752s-.216.488-.376.696-.35466667.376-.584.504-.488.192-.776.192zm8.356 1.552c.448 0 .832-.08 1.152-.24s.5866667-.336.8-.528c.2453333-.224.448-.48.608-.768h.032c-.0106667.0213333-.016.0533333-.016.096-.0106667.0426667-.016.128-.016.256v.32c0 .448.2186667.672.656.672h.544c.448 0 .672-.224.672-.672v-4.432c0-1.0346667-.296-1.8346667-.888-2.4-.592-.56533333-1.4213333-.848-2.488-.848-.608 0-1.1386667.07733333-1.592.232s-.8133333.30133333-1.08.44c-.3733333.20266667-.4586667.5013333-.256.896l.16.304c.1813333.3626667.48.4533333.896.272.192-.1066667.4373333-.2106667.736-.312s.6186667-.152.96-.152c.416 0 .7733333.1066667 1.072.32s.448.5866667.448 1.12v.192h-.336c-.3093333 0-.64.0133333-.992.04s-.704.0773333-1.056.152-.6906667.176-1.016.304-.616.296-.872.504-.4586667.4586667-.608.752-.224.6373333-.224 1.032c0 .3733333.072.7093333.216 1.008s.3386667.5546667.584.768.5306667.3786667.856.496.6746667.176 1.048.176zm.544-1.552c-.4053333 0-.712-.1093333-.92-.328s-.312-.4666667-.312-.744c0-.2986667.096-.5386667.288-.72s.4293333-.32.712-.416.584-.16.904-.192.608-.048.864-.048h.336v.304c0 .2453333-.0453333.496-.136.752s-.216.488-.376.696-.3546667.376-.584.504-.488.192-.776.192z" fill="#3e5b67"/></svg>