<svg xmlns="http://www.w3.org/2000/svg" width="18" height="16" viewBox="0 0 18 16">
    <path fill="#0D3B4E" fill-rule="nonzero" d="M12.226.07l.152.053 4.478 1.832c.592.242.995.804 1.05 1.442l.006.148L18 15.423a.564.564 0 0 1-.671.565l-.085-.025-5.463-2.095-5 1.863c-.351.143-.736.16-1.095.053l-.152-.053-4.478-1.832a1.714 1.714 0 0 1-1.05-1.446L0 12.303V1.334c0-.147.027-.292.08-.43A1.114 1.114 0 0 1 1.42.228l.116.04 4.413 1.806a.548.548 0 0 0 .334.026l.082-.026L11.13.123c.35-.143.736-.161 1.095-.054zm.088 12.779l4.56 1.75-.082-11.05c0-.2-.102-.384-.265-.487l-.087-.044-4.126-1.689v11.52zM6.78 3.136l-.063.025-.001 11.375 4.478-1.669V1.329L6.78 3.136zM1.12 1.33v10.974c0 .2.102.384.265.487l.086.045 4.126 1.687V3.158l-.064-.022L1.12 1.33z"/>
</svg>
