<svg xmlns="http://www.w3.org/2000/svg" width="24" height="24" viewBox="0 0 24 24">
    <path fill="#0D3B4E" fill-rule="nonzero" d="M15.673 2h.017c.276.002.552.056.814.161l5.97 2.404a2.252 2.252 0 0 1 1.408 2.088L24 22.243a.747.747 0 0 1-1.008.708l-7.284-2.75-6.667 2.446a2.225 2.225 0 0 1-1.663 0l-5.97-2.405A2.254 2.254 0 0 1 0 18.15v-14.4c0-.192.036-.383.107-.563a1.49 1.49 0 0 1 1.94-.836l5.885 2.37a.741.741 0 0 0 .555 0l6.355-2.56c.261-.104.537-.158.814-.16zm.745 1.744v15.121l6.081 2.296-.11-14.502a.752.752 0 0 0-.469-.698l-5.502-2.217zm-1.492.001L9.041 6.116a2.238 2.238 0 0 1-.085.032l-.001 14.93 5.971-2.19V3.745zm-13.433 0v14.404c0 .307.185.584.469.698l5.501 2.215V6.145l-.085-.029-5.885-2.371z"/>
</svg>
