<svg xmlns="http://www.w3.org/2000/svg" width="24" height="24" viewBox="0 0 24 24">
    <path fill="#0D3B4E" fill-rule="nonzero" d="M.708 3.011c.392 0 .709.317.709.709v18.066c0 .44.357.797.797.797H20.28a.708.708 0 0 1 0 1.417H2.214A2.214 2.214 0 0 1 0 21.786V3.72c0-.392.317-.709.708-.709zM21.334 0A2.666 2.666 0 0 1 24 2.666v15.657a2.666 2.666 0 0 1-2.666 2.666H5.677a2.666 2.666 0 0 1-2.666-2.666V2.666A2.666 2.666 0 0 1 5.677 0h15.657zm0 1.417H5.677c-.69 0-1.249.559-1.249 1.249v15.657c0 .69.56 1.249 1.249 1.249h15.657c.69 0 1.249-.56 1.249-1.249V2.666c0-.69-.559-1.249-1.249-1.249zm-5.548 7.445c.483.005.933.248 1.202.652l3.883 5.858a.708.708 0 0 1-.59 1.1H8.257a.708.708 0 0 1-.59-1.101l2.555-3.832a1.46 1.46 0 0 1 2.13-.332l.651.52 1.569-2.24c.276-.396.73-.63 1.213-.625zm-.015 1.417a.045.045 0 0 0-.037.02l-2.002 2.86a.708.708 0 0 1-1.023.147l-1.242-.993a.043.043 0 0 0-.064.01l-1.82 2.732h9.378l-3.153-4.757a.044.044 0 0 0-.037-.02zm-7.16-4.382a1.21 1.21 0 1 1 0 2.42 1.21 1.21 0 0 1 0-2.42z"/>
</svg>
