<svg xmlns="http://www.w3.org/2000/svg" width="32" height="32" viewBox="0 0 32 32">
    <path fill="#0D3B4E" fill-rule="nonzero" d="M.945 4.015c.521 0 .944.423.944.944v24.089c0 .587.476 1.063 1.063 1.063h24.089a.945.945 0 1 1 0 1.889H2.952A2.952 2.952 0 0 1 0 29.048V4.959c0-.521.423-.944.945-.944zM28.445 0A3.554 3.554 0 0 1 32 3.554v20.877a3.554 3.554 0 0 1-3.554 3.554H7.569a3.554 3.554 0 0 1-3.554-3.554V3.554A3.554 3.554 0 0 1 7.569 0h20.877zm0 1.89H7.57c-.92 0-1.665.745-1.665 1.664v20.877c0 .92.745 1.665 1.665 1.665h20.877c.92 0 1.665-.745 1.665-1.665V3.554c0-.92-.746-1.665-1.665-1.665zm-7.397 9.926a1.95 1.95 0 0 1 1.602.87l5.178 7.81a.945.945 0 0 1-.787 1.467H11.01a.945.945 0 0 1-.786-1.469l3.406-5.109a1.947 1.947 0 0 1 2.84-.442l.868.694 2.091-2.988c.369-.528.974-.84 1.618-.833zm-.02 1.889a.06.06 0 0 0-.05.026l-2.67 3.814a.945.945 0 0 1-1.363.196l-1.655-1.324a.058.058 0 0 0-.086.015l-2.428 3.642h12.505l-4.204-6.343a.06.06 0 0 0-.048-.026zm-9.547-5.843a1.614 1.614 0 1 1 .001 3.228 1.614 1.614 0 0 1 0-3.228z"/>
</svg>
