<svg height="24" viewBox="0 0 24 24" width="24" xmlns="http://www.w3.org/2000/svg"><path d="m6.73183871 0c1.18452886 0 2.15201403.92927456 2.21319983 2.098568l.00307205.11770388-.00038931.79360804 8.32044002.00049796c1.1845289 0 2.152014.92927456 2.2131998 2.09856801l.0030721.11770388-.0004332.79335023.7945392.00075576c1.1845288 0 2.152014.92927456 2.2131998 2.09856801l.0030721.11770388-.0008111.79397235.7949171.00013364c.3599935 0 .6575061.26751309.7045916.61459321l.0064913.09648974v13.54670051c0 .3927202-.3183627.7110829-.7110829.7110829h-16.55707839c-.39272027 0-.71108295-.3183627-.71108295-.7110829v-13.54670051c0-.39272027.31836268-.71108295.71108295-.71108295l14.34016129-.00013364.0006452-.79397235c0-.41116184-.3124805-.74933996-.7129133-.79000612l-.0811927-.00409988h-15.05188943c-.41116185 0-.74933996.3124805-.79000612.71291327l-.00409988.08119273v12.04151155c0 .3927202-.31836268.7110829-.71108294.7110829-.36817525 0-.67099715-.2798109-.70741171-.6383788l-.00367124-.0727041v-12.04151155c0-1.18452887.92927456-2.15201404 2.09856801-2.21319983l.11770388-.00307206 12.83535023-.00075576.0002673-.79335023c0-.41116185-.3124805-.74933996-.7129133-.79000612l-.0811927-.00409988h-9.03113365c-.36817525 0-.67099715-.27981095-.7074117-.63837884l-.00367125-.0727041v-1.50518895c0-.41116184-.31248049-.74933995-.71291327-.79000611l-.08119272-.00409988h-4.51556683c-.41116184 0-.74933995.31248049-.79000611.71291327l-.00409988.08119272v16.35638652c0 .3927202-.31836268.7110829-.71108295.7110829-.36817524 0-.67099715-.2798109-.7074117-.6383788l-.00367124-.0727041v-16.35638652c0-1.18452886.92927456-2.15201403 2.098568-2.21319983l.11770388-.00307205zm15.03716129 10.452-14.32650388.0009464v12.1248606h15.13531088v-12.1248606l-.7799413.0002154c-.0047015.0000917-.0094141.0001377-.0141376.0001377zm-10.4887362 1.8244547c.4624659-.2861461 1.0400759-.3125906 1.5267534-.0698988l5.809262 2.9051325c.5321004.2655894.8683169.809178.8683169 1.4038784s-.3362165 1.138289-.8678322 1.4036363l-5.8097467 2.9053747c-.4866775.2426918-1.0642875.2162473-1.5267534-.0698988-.4624751-.2861518-.7439412-.7912571-.7439412-1.335101v-5.8080224c0-.5438438.2814661-1.0489491.7439412-1.3351009zm.8920953 1.202801c-.0458389-.0228585-.1002424-.0203677-.1438008.0065836-.0435634.0269544-.0700698.0745216-.0700698.1257163v5.8080224c0 .0511948.0265064.098762.0700698.1257163.0435584.0269514.0979619.0294421.1430799.0069436l5.8095106-2.9052568c.0498088-.0248613.0812814-.0757456.0812814-.1314143s-.0314726-.1065529-.0817661-.1316564z" fill="#0d3b4e"/></svg>