<svg xmlns="http://www.w3.org/2000/svg" width="18" height="18" viewBox="0 0 18 18">
    <path fill="#0D3B4E" fill-rule="nonzero" d="M9.026 0l.04.004.058.01A.606.606 0 0 1 9.32.1c.007.004.01.006.012.009l.066.056 2.25 2.25a.563.563 0 0 1-.718.86l-.078-.065-1.29-1.291v6.518h6.517l-1.29-1.29a.563.563 0 0 1 .718-.86l.078.065 2.25 2.25a.565.565 0 0 1 .063.074l-.063-.074A.564.564 0 0 1 18 9l-.003-.062.002.028L18 9a.571.571 0 0 1-.109.332l-.056.066-2.25 2.25a.563.563 0 0 1-.86-.718l.065-.078 1.29-1.29H9.562v6.518l1.29-1.29a.563.563 0 0 1 .86.717l-.064.078-2.25 2.25-.036.033-.006.003-.005.006-.017.011-.006.005-.028.02a.574.574 0 0 1-.176.073l-.061.01-.009.001-.02.002L9 18l-.035-.001a.578.578 0 0 1-.285-.099.583.583 0 0 1-.078-.065l-2.25-2.25a.563.563 0 0 1 .718-.86l.078.065 1.289 1.289V9.562H1.919l1.291 1.29a.563.563 0 0 1-.717.86l-.078-.064-2.25-2.25-.056-.066a.557.557 0 0 1-.007-.008l.063.074A.564.564 0 0 1 0 9l.004.066A.565.565 0 0 1 0 9.026L0 9a.572.572 0 0 1 .1-.32.583.583 0 0 1 .065-.078l2.25-2.25a.563.563 0 0 1 .86.718l-.065.078-1.29 1.289h6.517V1.92l-1.29 1.29a.563.563 0 0 1-.86-.717l.065-.078 2.25-2.25.069-.059.029-.02A.574.574 0 0 1 9 0h.026zm.036 17.997h-.015.015zm.336-.162l-.064.053.022-.017.042-.036zM8.66.114l-.058.05.047-.041.011-.009zm.012-.009l-.001.001-.011.008.008-.005.004-.004zM9 0l-.066.004A.565.565 0 0 1 8.974 0L9 0z"/>
</svg>
