<svg xmlns="http://www.w3.org/2000/svg" width="24" height="24" viewBox="0 0 24 24">
    <path fill="#0D3B4E" fill-rule="nonzero" d="M12 0a.767.767 0 0 1 .369.097.777.777 0 0 1 .161.123L12.452.15a.737.737 0 0 1 .006.005l.072.064 3 3a.75.75 0 0 1-1.06 1.06l-1.72-1.72v8.69h8.689l-1.72-1.72a.75.75 0 0 1-.072-.976l.073-.084a.75.75 0 0 1 1.06 0l3 3A.754.754 0 0 1 24 12l-.004-.074c.002.015.003.03.003.046L24 12a.763.763 0 0 1-.129.42.748.748 0 0 1-.09.11l.068-.078a.737.737 0 0 1-.005.006l-.064.072-3 3a.75.75 0 0 1-1.06-1.06l1.719-1.72H12.75v8.689l1.72-1.72a.75.75 0 0 1 .976-.072l.084.073a.75.75 0 0 1 0 1.06l-3 3A.754.754 0 0 1 12 24l.073-.004a.754.754 0 0 1-.044.003L12 24a.762.762 0 0 1-.42-.129.748.748 0 0 1-.11-.09l.078.068a.754.754 0 0 1-.078-.069l-3-3a.75.75 0 0 1 1.06-1.06l1.72 1.719V12.75H2.56l1.72 1.72a.75.75 0 0 1 .073.976l-.073.084a.75.75 0 0 1-1.06 0l-3-3-.064-.072A.737.737 0 0 1 0 12l.004.077a.754.754 0 0 1-.004-.06V12a.764.764 0 0 1 .129-.42.748.748 0 0 1 .09-.11l-.068.078a.754.754 0 0 1 .069-.078l3-3a.75.75 0 0 1 1.06 1.06l-1.72 1.72h8.69V2.56L9.53 4.28a.75.75 0 0 1-.976.073L8.47 4.28a.75.75 0 0 1 0-1.06l3-3 .072-.064A.737.737 0 0 1 12 0l-.077.004a.754.754 0 0 1 .06-.004z"/>
</svg>
