<svg height="24" viewBox="0 0 24 24" width="24" xmlns="http://www.w3.org/2000/svg"><path d="m12.8886665 0c.5513514 0 1.0821817.2019177 1.4925461.56469364l.1000236.09402144 5.8753613 5.87195483c.3896183.38932602.6215961.90650036.6549795 1.45311896l.0041848.13721113v4.629c0 .4142136-.3360384.75-.7505629.75-.3886167 0-.7082515-.2951248-.7466879-.6733169l-.003875-.0766831-.000636-3.75h-5.2533045c-1.2030444 0-2.1863773-.94381664-2.2485663-2.13054357l-.0031224-.11945643-.0000068-5.25h-9.75731123c-.38821595 0-.70820144.2955002-.74668316.67338724l-.00387977.07661276v19.5c0 .3879248.295722.7076703.67389267.7461231l.07667026.0038769c.41452445 0 .75056292.3357864.75056292.75s-.33603847.75-.75056292.75c-1.20304444 0-2.18637737-.9438166-2.24856633-2.1305436l-.00312244-.1194564v-19.5c0-1.20214216.94452504-2.18473758 2.13214267-2.2468799l.1195461-.0031201zm.6214661 15c1.6584574 0 3.0022517 1.3427864 3.0022517 3 0 1.6136027-1.2739989 2.9291093-2.8719933 2.997229l-.1302584.002771v2.25c0 .4142136-.3360385.75-.7505629.75-.3886167 0-.7082516-.2951248-.7466879-.6733169l-.003875-.0766831v-7.5c0-.1051404.021651-.2052277.0607411-.296053.0191638-.0446908.0431078-.0879573.0709122-.1283651.0645467-.0938414.1500388-.1723469.2497168-.2287269.0101803-.0057707.0211205-.0116191.0322183-.0172004.018527-.0093111.0372962-.0177984.0564573-.0255184.0110414-.0044379.0216045-.0084084.0322776-.0121448.0202377-.0071102.0416822-.0135853.0635076-.019105.0106714-.0026862.0205827-.0049672.0305668-.00705.0206353-.0043233.0422238-.007878.0641014-.0104923.0044772-.0005346.0088945-.0010225.0133231-.0014719l.0767407-.0038722zm10.4866112.6936318.0032562.0713682-.001 5.966.001.019v1.5c0 .4142136-.3360385.75-.7505629.75-.3886167 0-.7082516-.2951248-.7466879-.6733169l-.003875-.0766831-.0008742-.75h-3.7339269c-.4662315 0-.8196595-.4202856-.7393419-.8792024.495557-2.8315 2.312968-5.2564426 4.8925806-6.5283734.4771224-.235255 1.032077.0863728 1.079432.6012076zm-13.4923729-.0205796.00351.0769478v7.5c0 .4142136-.3360385.75-.75056291.75-.38861668 0-.70825153-.2951248-.74668785-.6733169l-.00387507-.0766831v-4.7934l-.85752345 1.4292718c-.27694513.461229-.92629897.4842905-1.24048497.0691844l-.04671982-.0691844-.85752345-1.4280718v4.7922c0 .3883252-.29534631.7077203-.67382223.7461278l-.07674069.0038722c-.38861668 0-.70825153-.2951248-.74668786-.6733169l-.00387507-.0766831v-7.5c0-.7344374.93456482-1.0184281 1.35153652-.4500495l.0426288.0641777 1.60808637 2.6778718 1.60808637-2.6778718c.37814853-.6297749 1.32575291-.3928259 1.39065531.308924zm11.9945033 1.4161478-.1605291.1199922c-1.2092456.9250107-2.1122618 2.1987631-2.5826956 3.6527255l-.0428649.1380823h2.7860896zm-8.9887416-.5892v3c.8294085 0 1.5011258-.6712136 1.5011258-1.5 0-.795635-.6190547-1.4460508-1.4023866-1.496811zm-.0001326-14.69.0001326 4.94c0 .38792479.295722.70767029.6738927.74612314l.0766702.00387686h4.9433045z" fill="#0d3b4e"/></svg>