<svg xmlns="http://www.w3.org/2000/svg" width="24" height="24" viewBox="0 0 24 24">
  <path fill="#134154" d="M5.5,7.5 C5.91421356,7.5 6.25,7.83578644 6.25,8.25 C6.25,8.66421356 5.91421356,9 5.5,9 L5.5,9 L3.25,9 C2.83621356,9 2.5,9.33621356 2.5,9.75 L2.5,9.75 L2.5,21.75 C2.5,22.1637864 2.83621356,22.5 3.25,22.5 L3.25,22.5 L16.75,22.5 C17.1637864,22.5 17.5,22.1637864 17.5,21.75 L17.5,21.75 L17.5,14.25 C17.5,13.8357864 17.8357864,13.5 18.25,13.5 C18.6642136,13.5 19,13.8357864 19,14.25 L19,14.25 L19,21.75 C19,22.9922136 17.9922136,24 16.75,24 L16.75,24 L3.25,24 C2.00778644,24 1,22.9922136 1,21.75 L1,21.75 L1,9.75 C1,8.50778644 2.00778644,7.5 3.25,7.5 L3.25,7.5 Z M16.2196699,0.219669914 C16.5125631,-0.0732233047 16.9874369,-0.0732233047 17.2803301,0.219669914 L17.2803301,0.219669914 L21.7803301,4.71966991 C21.8049299,4.74426976 21.8278288,4.77057056 21.8488352,4.79838075 C21.8527455,4.80347273 21.8563902,4.80842233 21.8599664,4.8134059 C21.875247,4.83477606 21.8898144,4.85753388 21.903145,4.88108416 C21.9112981,4.89537558 21.9189416,4.91000914 21.9260696,4.92482849 C21.934555,4.94248608 21.9425505,4.96090579 21.9498114,4.97969108 C21.9539715,4.99054351 21.957697,5.00090869 21.9611871,5.01133534 C21.9682078,5.03208384 21.9744597,5.05388154 21.9797267,5.07606067 C21.982701,5.08891527 21.9852988,5.10128538 21.9875819,5.113702 C21.9957051,5.15731196 22,5.20315442 22,5.25 L21.9963234,5.17560364 C21.9978395,5.19090188 21.9988867,5.20623781 21.999465,5.22158812 L22,5.25 C22,5.25991105 21.9998078,5.2697772 21.9994268,5.27959492 C21.9988542,5.29409054 21.9978527,5.30875909 21.9964221,5.32339361 C21.9943128,5.34528402 21.9913287,5.36636981 21.9874876,5.38715509 C21.9854242,5.39803282 21.9829853,5.4097261 21.9802653,5.42136702 C21.9748291,5.4448272 21.9684207,5.46728345 21.9610197,5.48928365 C21.957697,5.49909131 21.9539715,5.50945649 21.9500107,5.51975191 C21.9425505,5.53909421 21.934555,5.55751392 21.9258602,5.57553283 C21.9189416,5.58999086 21.9112981,5.60462442 21.9031392,5.61904532 C21.8941789,5.63475568 21.8846532,5.65023702 21.8745949,5.66533301 C21.8477089,5.70582172 21.8162182,5.74444198 21.7803301,5.78033009 L21.8488352,5.70161925 C21.8471451,5.70385686 21.8454427,5.70608469 21.8437281,5.70830264 L21.7803301,5.78033009 L17.2803301,10.2803301 C16.9874369,10.5732233 16.5125631,10.5732233 16.2196699,10.2803301 C15.9267767,9.98743687 15.9267767,9.51256313 16.2196699,9.21966991 L16.2196699,9.21966991 L19.438,6 L13,6 C11.8089963,6 10.8343434,6.92502773 10.7551901,8.09593446 L10.75,8.25 L10.75,12 C10.75,12.4142136 10.4142136,12.75 10,12.75 C9.58578644,12.75 9.25,12.4142136 9.25,12 L9.25,12 L9.25,8.25 C9.25,6.17878644 10.9287864,4.5 13,4.5 L13,4.5 L19.44,4.5 L16.2196699,1.28033009 C15.9534034,1.01406352 15.9291973,0.597399841 16.1470518,0.303788347 Z"/>
</svg>
