<svg xmlns="http://www.w3.org/2000/svg" width="24" height="24" viewBox="0 0 24 24">
    <path fill="#0D3B4E" fill-rule="nonzero" d="M23.149 11.334l.015.014a2.866 2.866 0 0 1-.006 4.053l-7.625 7.629a.75.75 0 0 1-.383.205l-3.75.75a.75.75 0 0 1-.883-.882l.75-3.75a.75.75 0 0 1 .206-.384l7.629-7.629a2.863 2.863 0 0 1 4.047-.006zM20.163 12.4l-7.47 7.47-.484 2.424 2.424-.485 7.465-7.47c.535-.533.536-1.398.036-1.9l-.04-.039a1.364 1.364 0 0 0-1.93 0zM17.248 0a2.25 2.25 0 0 1 2.25 2.25V9a.75.75 0 1 1-1.5 0V2.25a.75.75 0 0 0-.75-.75H2.25a.75.75 0 0 0-.75.75v16.5c0 .413.336.75.75.75h6a.75.75 0 0 1 0 1.5h-6A2.25 2.25 0 0 1 0 18.75V2.25A2.25 2.25 0 0 1 2.25 0zm-4.5 13.5a.75.75 0 0 1 0 1.5H5.25a.75.75 0 0 1 0-1.5zm1.5-4.5a.75.75 0 0 1 0 1.5H5.25a.75.75 0 0 1 0-1.5zm0-4.5a.75.75 0 0 1 0 1.5H8.25a.75.75 0 0 1 0-1.5z"/>
</svg>
