<svg xmlns="http://www.w3.org/2000/svg" width="32" height="32" viewBox="0 0 32 32">
    <path fill="#0D3B4E" fill-rule="nonzero" d="M30.865 15.112l.02.019a3.822 3.822 0 0 1-.007 5.403L20.71 30.706a1 1 0 0 1-.51.274l-5 1a1 1 0 0 1-1.177-1.177l1-5a1 1 0 0 1 .274-.51L25.469 15.12a3.817 3.817 0 0 1 5.396-.008zm-3.98 1.422l-9.96 9.959-.647 3.232 3.232-.647 9.954-9.959c.713-.71.715-1.864.049-2.535l-.055-.05a1.818 1.818 0 0 0-2.574 0zM22.997 0a3 3 0 0 1 2.994 2.824l.005.176v9a1 1 0 0 1-1.993.116L23.997 12V3c0-.512-.386-.935-.883-.993L22.998 2H3a1 1 0 0 0-.993.883L2 3v22c0 .512.386.935.883.993L3 26h7.999a1 1 0 0 1 .116 1.993L11 28h-8a3 3 0 0 1-2.994-2.824L0 25V3A3 3 0 0 1 2.823.005L3 0h19.998zm-6 18a1 1 0 0 1 0 2H7a1 1 0 0 1 0-2zM7 12h11.999a1 1 0 0 1 .117 1.993l-.117.007H6.999a1 1 0 0 1-.116-1.993L6.999 12h11.999zm11.999-6a1 1 0 0 1 .117 1.993L18.998 8h-8a1 1 0 0 1-.116-1.993L11 6h7.999z"/>
</svg>
