<svg xmlns="http://www.w3.org/2000/svg" width="18" height="18" viewBox="0 0 18 18">
    <path fill="#0D3B4E" fill-rule="nonzero" d="M12.938 7.875a5.062 5.062 0 1 1 0 10.124 5.062 5.062 0 0 1 0-10.124zm0 1.125a3.937 3.937 0 1 0 0 7.874 3.937 3.937 0 0 0 0-7.874zm-2.25-9c.31 0 .562.252.562.563v.562h1.708a1.73 1.73 0 0 1 1.666 1.621l.001.147v3.295a.562.562 0 0 1-1.117.09l-.008-.09V2.873c.01-.3-.2-.556-.47-.613l-.092-.011-1.688-.001v1.688c0 .28-.204.512-.471.556l-.091.007a.562.562 0 0 1-.563-.563V2.25h-2.25v1.688c0 .28-.204.512-.47.556l-.092.007a.563.563 0 0 1-.555-.471l-.008-.091V2.248H4.5v1.688c0 .28-.204.512-.47.556l-.092.007a.563.563 0 0 1-.555-.471l-.007-.091-.001-1.689H1.708a.606.606 0 0 0-.578.54l-.004.104v11.21a.536.536 0 0 0 .471.517l.091.005h4.5a.562.562 0 0 1 .091 1.118l-.091.007H1.702a1.66 1.66 0 0 1-1.691-1.47L0 14.136V2.911a1.735 1.735 0 0 1 1.687-1.786l1.687-.001V.562c0-.28.205-.511.472-.555L3.938 0c.28 0 .512.204.555.471L4.5.563v.561h2.25V.562c0-.28.204-.511.472-.555L7.312 0c.28 0 .512.204.556.471l.007.092v.561h2.25V.562c0-.28.204-.511.472-.555zm2.25 10.386c.28 0 .511.204.555.471l.007.091v1.427h1.427a.562.562 0 0 1 .09 1.118l-.09.007h-1.99a.563.563 0 0 1-.554-.471l-.008-.091v-1.99c0-.31.252-.562.563-.562z"/>
</svg>
