<svg xmlns="http://www.w3.org/2000/svg" width="24" height="24" viewBox="0 0 24 24">
    <path fill="#0D3B4E" fill-rule="nonzero" d="M17.25 10.5A6.75 6.75 0 0 1 24 17.25a6.75 6.75 0 1 1-13.5 0 6.75 6.75 0 0 1 6.75-6.75zm0 1.5a5.25 5.25 0 1 0 0 10.5 5.25 5.25 0 0 0 0-10.5zm-3-12a.75.75 0 0 1 .75.75v.75h2.277A2.305 2.305 0 0 1 19.5 3.702V8.25a.75.75 0 1 1-1.5 0V3.833c.015-.445-.333-.817-.75-.833H15v2.25a.75.75 0 0 1-.648.743L14.25 6a.75.75 0 0 1-.75-.75V2.999h-3V5.25a.75.75 0 0 1-.648.743L9.751 6A.75.75 0 0 1 9 5.25L9 2.999H6V5.25a.75.75 0 0 1-.648.743L5.251 6a.75.75 0 0 1-.75-.75L4.5 2.999H2.278a.81.81 0 0 0-.774.752l-.003.106v14.947c.01.394.337.706.75.696h6a.75.75 0 0 1 0 1.5H2.269a2.213 2.213 0 0 1-2.268-2.15V3.88A2.313 2.313 0 0 1 2.251 1.5H4.5V.75A.75.75 0 0 1 5.15.007L5.25 0A.75.75 0 0 1 6 .75L6 1.5h3V.75A.75.75 0 0 1 9.65.007L9.75 0a.75.75 0 0 1 .75.75l-.001.75h3V.75a.75.75 0 0 1 .649-.743zm3 13.848a.75.75 0 0 1 .75.75V16.5h1.902a.75.75 0 0 1 0 1.5H17.25a.75.75 0 0 1-.75-.75v-2.652a.75.75 0 0 1 .75-.75z"/>
</svg>
