<svg height="24" viewBox="0 0 24 24" width="24" xmlns="http://www.w3.org/2000/svg"><path d="m12 0c6.627417 0 12 5.372583 12 12s-5.372583 12-12 12-12-5.372583-12-12 5.372583-12 12-12zm0 1.5c-5.79898987 0-10.5 4.70101013-10.5 10.5 0 5.7989899 4.70101013 10.5 10.5 10.5 5.7989899 0 10.5-4.7010101 10.5-10.5 0-5.79898987-4.7010101-10.5-10.5-10.5zm-6 8.247c1.24264069 0 2.25 1.0073593 2.25 2.25s-1.00735931 2.25-2.25 2.25-2.25-1.0073593-2.25-2.25 1.00735931-2.25 2.25-2.25zm12 0c1.2426407 0 2.25 1.0073593 2.25 2.25s-1.0073593 2.25-2.25 2.25-2.25-1.0073593-2.25-2.25 1.0073593-2.25 2.25-2.25zm-6 0c1.2426407 0 2.25 1.0073593 2.25 2.25s-1.0073593 2.25-2.25 2.25-2.25-1.0073593-2.25-2.25 1.0073593-2.25 2.25-2.25zm-6 1.5c-.41421356 0-.75.3357864-.75.75s.33578644.75.75.75.75-.3357864.75-.75-.33578644-.75-.75-.75zm12 0c-.4142136 0-.75.3357864-.75.75s.3357864.75.75.75.75-.3357864.75-.75-.3357864-.75-.75-.75zm-6 0c-.4142136 0-.75.3357864-.75.75s.3357864.75.75.75.75-.3357864.75-.75-.3357864-.75-.75-.75z" fill="#0d3b4e"/></svg>