<svg xmlns="http://www.w3.org/2000/svg" width="32" height="30" viewBox="0 0 32 30">
    <path fill="#0D3B4E" fill-rule="nonzero" d="M0 15a5 5 0 0 1 9.9-1.001L16 14v-1.232c-.201-4.88 3.359-9.046 8.107-9.69A4.001 4.001 0 0 1 32 4a4 4 0 0 1-7.848 1.095c-3.544.592-6.192 3.693-6.158 7.386l.006.246L17.999 14h6.127A4.002 4.002 0 0 1 32 15a4 4 0 0 1-7.874 1h-6.127v1.315a7.39 7.39 0 0 0 6.153 7.592 4 4 0 1 1-.045 2.016c-4.66-.633-8.176-4.656-8.114-9.38l.007-.27L15.999 16h-6.1A5.002 5.002 0 0 1 0 15zm26 11a2 2 0 1 0 4 0 2 2 0 0 0-4 0zm0-11a2 2 0 1 0 4 0 2 2 0 0 0-4 0zm0-11a2 2 0 1 0 4 0 2 2 0 0 0-4 0zM2 15a3 3 0 1 0 6 0 3 3 0 0 0-6 0z"/>
</svg>
