<svg xmlns="http://www.w3.org/2000/svg" width="24" height="24" viewBox="0 0 24 24">
    <path fill="#0D3B4E" fill-rule="nonzero" d="M0 12c0-2.117 1.679-3.833 3.75-3.833 1.814 0 3.328 1.317 3.675 3.066l4.575.001v-.945c-.151-3.741 2.52-6.935 6.08-7.43C18.393 1.507 19.581.5 21 .5c1.657 0 3 1.373 3 3.067 0 1.693-1.343 3.066-3 3.066-1.372 0-2.53-.941-2.886-2.227-2.717.464-4.732 2.937-4.614 5.851l-.001.977h4.596c.319-1.267 1.41-2.217 2.729-2.295L21 8.933c1.657 0 3 1.373 3 3.067 0 1.694-1.343 3.067-3 3.067-1.398 0-2.572-.978-2.905-2.3h-4.596v1.008c-.117 2.884 1.898 5.356 4.616 5.82.356-1.287 1.513-2.228 2.885-2.228 1.657 0 3 1.373 3 3.066 0 1.694-1.343 3.067-3 3.067-1.419 0-2.607-1.007-2.92-2.36-3.56-.494-6.231-3.686-6.08-7.397l-.001-.976H7.425c-.335 1.687-1.754 2.972-3.482 3.061l-.193.005C1.679 15.833 0 14.117 0 12zm19.5 8.433c0 .847.672 1.534 1.5 1.534s1.5-.687 1.5-1.534S21.828 18.9 21 18.9s-1.5.686-1.5 1.533zm0-8.433c0 .847.672 1.533 1.5 1.533s1.5-.686 1.5-1.533c0-.847-.672-1.533-1.5-1.533s-1.5.686-1.5 1.533zm0-8.433c0 .847.672 1.533 1.5 1.533s1.5-.686 1.5-1.533c0-.847-.672-1.534-1.5-1.534s-1.5.687-1.5 1.534zM1.5 12c0 1.27 1.007 2.3 2.25 2.3S6 13.27 6 12c0-1.27-1.007-2.3-2.25-2.3S1.5 10.73 1.5 12z"/>
</svg>
