<svg height="24" viewBox="0 0 24 24" width="24" xmlns="http://www.w3.org/2000/svg"><path d="m9.004 15c1.6572136 0 3 1.3427864 3 3 0 1.6136027-1.2730434 2.9291093-2.86983933 2.997229l-.13016067.002771h-.004v2.25c0 .4142136-.33578644.75-.75.75-.38832521 0-.70772034-.2951248-.74612783-.6733169l-.00387217-.0766831v-7.5c0-.1047437.02147188-.2044723.06025413-.2950244.01925397-.0451096.0433212-.0887012.07130051-.1293937.04582159-.0666678.10225532-.1256436.16682611-.1744171.01393545-.0105193.02804843-.0204322.0425067-.02986.00990022-.0064598.02015652-.0128059.03057319-.0189078l.01526371-.0087025c.01153127-.0063964.02324885-.0124977.03514255-.0182937.01540715-.00752.03153627-.0147.04795328-.0213158.00934547-.0037579.01823705-.0071375.02720767-.010351.02262755-.0081205.04617802-.0152903.07018731-.0213029.00824497-.0020641.01649183-.0039806.02478963-.0057598l-.02478963.0057598c.03024328-.0075737.06121459-.0133112.09278858-.017087.00447391-.0005346.00888783-.0010225.01331312-.0014719l.07668314-.0038722zm5.246 0c2.0712136 0 3.75 1.6787864 3.75 3.75v1.5c0 2.0712136-1.6787864 3.75-3.75 3.75-.4142136 0-.75-.3357864-.75-.75v-7.5c0-.4142136.3357864-.75.75-.75zm9 0c.4142136 0 .75.3357864.75.75 0 .3883252-.2951248.7077203-.6733169.7461278l-.0766831.0038722h-1.5c-.3879248 0-.7076703.2955002-.7461231.6733872l-.0038769.0766128v2.25h1.5c.4142136 0 .75.3357864.75.75 0 .3883252-.2951248.7077203-.6733169.7461278l-.0766831.0038722h-1.5v2.25c0 .4142136-.3357864.75-.75.75-.3883252 0-.7077203-.2951248-.7461278-.6733169l-.0038722-.0766831v-6c0-1.2021422.9438166-2.1847376 2.1305436-2.2468799l.1194564-.0031201zm-10.371-15c.5515851 0 1.0823501.20237321 1.4916059.56554976l.0997242.09412015 5.871 5.87100001c.3892588.38925881.6211195.90725413.654487 1.45408062l.0041829.13724946-.000134.11367784c.0000892.00476332.000134.0095375.000134.01432215l-.001.01200001.001 4.488c0 .4142135-.3357865.75-.75.75-.3883253 0-.7077204-.2951248-.7461279-.6733169l-.0038721-.0766831-.001-3.751-5.249.001c-1.2021422 0-2.1847376-.94381665-2.2468799-2.13054358l-.0031201-.11945643v-5.25099999l-9.75.001c-.38792479 0-.70767029.2955002-.74612314.67338724l-.00387686.07661276v19.5c0 .3879248.29550018.7076702.67338724.7461231l.07661276.0038769h2.99999999c.41421356 0 .75000001.3357864.75000001.75 0 .3883252-.29512481.7077203-.67331687.7461278l-.07668314.0038722h-2.99999999c-1.20214217 0-2.18473758-.9438167-2.2468799-2.1305436l-.0031201-.1194564v-19.5c0-1.20214216.94381664-2.18473758 2.13054356-2.2468799l.11945644-.0031201zm2.1208 16.6286v5.742l.0471687-.0157848c.8139432-.3082933 1.4022966-1.0751114 1.4499129-1.9853069l.0031184-.1195083v-1.5c0-.9621572-.6036993-1.7831178-1.4530313-2.1048152zm-5.9958-.1286h-.004v3h.004c.82878644 0 1.5-.6712136 1.5-1.5 0-.795635-.61859042-1.4460508-1.40133485-1.496811zm4.496-14.689v4.93899999c0 .38792479.2955002.70767028.6733872.74612314l.0766128.00387687 4.938-.001z" fill="#0d3b4e"/></svg>