<svg width="24" height="24" viewBox="0 0 24 24" xmlns="http://www.w3.org/2000/svg">
    <path d="M21.153 2.5a1.5 1.5 0 0 1 1.46 1.177l1.37 6.16A.75.75 0 0 1 24 10a3.56 3.56 0 0 1-6.406 2.139l-.026-.035-.034.042a3.564 3.564 0 0 1-2.599 1.254l-.12.002a3.564 3.564 0 0 1-2.72-1.256l-.034-.042-.025.035a3.555 3.555 0 0 1-2.726 1.42l-.12.001a3.555 3.555 0 0 1-2.846-1.421l-.026-.035-.034.042A3.564 3.564 0 0 1 3.685 13.4l-.12.002a3.57 3.57 0 0 1-3.564-3.357.75.75 0 0 1 .017-.208l.75-3.37a.75.75 0 0 1 1.464.326l-.726 3.26A2.072 2.072 0 0 0 3.463 11.9l.102.002a2.07 2.07 0 0 0 2.066-1.946C5.69 8.986 7.13 9.03 7.13 10a2.06 2.06 0 0 0 4.117.103L11.25 10c0-.97 1.44-1.013 1.499-.044a2.07 2.07 0 0 0 4.132 0c.058-.97 1.499-.926 1.499.044a2.06 2.06 0 0 0 4.117.103l.001-.029L21.147 4H19.5a.75.75 0 0 1-.747-.677l-.003-.073a.75.75 0 0 1 .75-.75h1.653zM9.69 0a5.508 5.508 0 0 1 3.535 1.237l1.105.974.937-.785a.75.75 0 0 1 1.23.51L16.5 2v4.75a.75.75 0 0 1-.75.75h-5.7a.75.75 0 0 1-.546-1.264l1.043-1.108-.036-.023a3.948 3.948 0 0 0-1.996-.604H4.35a.75.75 0 0 1-.544-.234l-2.85-3A.75.75 0 0 1 1.5 0zM3.247 1.5 4.672 3H8.34a5.447 5.447 0 0 1 3.349 1.097l.44.34a.75.75 0 0 1 .087 1.107l-.43.456H15V3.608l-.198.167a.75.75 0 0 1-.92.034l-.058-.046-1.565-1.379A3.99 3.99 0 0 0 9.71 1.5H3.247zM21.75 14.667a.75.75 0 0 1 .75.713v6.37A2.25 2.25 0 0 1 20.303 24H3.75a2.25 2.25 0 0 1-2.25-2.197v-6.386A.75.75 0 0 1 3 15.38v6.37c0 .402.316.73.714.75H20.25a.75.75 0 0 0 .75-.714v-6.369a.75.75 0 0 1 .75-.75z" fill="#134154" fill-rule="nonzero"/>
</svg>
