<svg height="24" viewBox="0 0 24 24" width="24" xmlns="http://www.w3.org/2000/svg"><path d="m21.7499727 11.9999988c.4020303 0 .7301791.3163248.7491342.713662l.0008649 9.036341c0 1.2248891-.978782 2.221171-2.1968875 2.2493862l-1.5390843-.000388-.0140235.0010025h-5.9999925c-.0047846 0-.0095588-.0000448-.0143221-.000134l-8.9856666.0001303c-1.22488714 0-2.2211675-.9787798-2.24938268-2.1968873l-.00061449-.0531097v-9.0000028c0-.4142137.33578601-.7500002.74999906-.7500002.4020303 0 .73017909.3163248.74913419.713662l.00086675 9.036341c0 .4020309.31632249.7301802.71365904.7491354l8.28534283-.0001372.000985-5.9989998c0-2.0042598 1.572359-3.6412749 3.5508369-3.7448032l.1991584-.005198c2.0710652 0 3.7500047 1.6789327 3.7500047 3.7500012l-.000985 5.9989998.7509746.0009988c.4020303 0 .7301791-.3163216.7491342-.7136588l.0008649-9.036341c0-.4142137.335786-.7500002.749999-.7500002zm-5.9999924 2.2500007c-1.2426392 0-2.2499972 1.0073596-2.2499972 2.2500007l-.0009831 5.9989998h4.5l.0009831-5.9989998c0-1.1716331-.8955259-2.1341057-2.0394278-2.2402768l-.1574654-.0091094zm-6.12856379.7500002c.48522099 0 .87857789.3933499.87857789.8785717v4.2428585c0 .4852217-.3933569.8785698-.87857789.8785698h-4.24285182c-.48522099 0-.87857033-.3933481-.87857033-.8785698v-4.2428585c0-.4852218.39334934-.8785717.87857033-.8785717zm6.52368249 2.2499699c.4446661.005904.8464326.2727914 1.0230296.6839454.1824836.424859.087712.9180285-.2392474 1.2449884s-.8201281.4217317-1.2449865.2392478-.6956725-.6053991-.6836604-1.0676342c.0152729-.5877127.4779319-1.0630933 1.0603685-1.0985327l.0398933-.0017308zm-7.14510652-.7499694h-3v3h3zm12.15271672-16.5000002c.7030663.00256452 1.3100143.49311232 1.4593748 1.1771717l1.3699983 6.16000192c.0124081.05579161.0183982.11281874.0178876.16997092l-.0006572.06180654c-.0369517 1.93718507-1.6189606 3.49104742-3.5593383 3.49104742-1.1636287 0-2.1968632-.5582849-2.8464626-1.42161336l-.025191-.03392999-.0131476.01617031c-.6444681.77078434-1.606852 1.26304224-2.6793671 1.28100964l-.0608247.0005092c-1.0969102 0-2.0835638-.4961914-2.7401917-1.28151884l-.0134334-.01617031-.0249053.03392999c-.6383993.84844346-1.6473191 1.40227146-2.78639241 1.42111676l-.06007011.0004966c-1.16362869 0-2.19686317-.5582849-2.84646255-1.42161336l-.02519099-.03392999-.01314768.01617031c-.64446807.77078434-1.60685198 1.26304224-2.6793671 1.28100964l-.06082462.0005092c-1.88912311 0-3.45121998-1.47172834-3.56366575-3.35750489-.00414946-.06958871.00142348-.13941613.01655787-.20746579l1.36937491-6.15717325c.14998381-.68688805.75693184-1.17743585 1.45999817-1.18000037zm-.0054786 1.49999548-18.29452156.00009977-1.34602521 6.05133069.00706273.0592976c.13501681 1.00087053.979492 1.76555909 1.99923424 1.79077774l.05201474.00064256c1.0953739 0 2.00112755-.85335509 2.06632719-1.94678855l.00320019-.03978696c.09432266-.9277769 1.49546815-.87274573 1.49546815.08442715l.00063273.05156501c.02736497 1.11388036.93889748 2.0084375 2.05936468 2.0084375 1.13770512 0 2.05999742-.9222937 2.05999742-2.06000251l.0008263-.03990503c.0389317-.93174625 1.4408685-.9602128 1.497842-.00473516l.0037375.05188434c.090264 1.06842475.9846027 1.89490421 2.0625897 1.89490421 1.0953739 0 2.0011276-.85335509 2.0663272-1.94678855l.0032002-.03978696c.0943227-.9277769 1.4954682-.87274573 1.4954682.08442715l.0006327.05156501c.027365 1.11388036.9388975 2.0084375 2.0593647 2.0084375 1.1227283 0 2.0382408-.899224 2.0595106-2.01249774l-.0010561.02843998z" fill="#134154"/></svg>