<svg height="24" viewBox="0 0 24 24" width="24" xmlns="http://www.w3.org/2000/svg"><path d="m17.25 2c.4142136 0 .75.34444934.75.76934913v3.84365087l3.75.00001739c1.190864 0 2.1656449.94902969 2.2448092 2.1500243l.0051908.15802309v10.77088782c0 1.2215869-.9251616 2.2215161-2.0959512 2.3027227l-.1540488.0053247h-13.5c-1.19086399 0-2.16564492-.9490297-2.24480919-2.1500243l-.00519081-.1580231v-2.3059526l-5.25.0009826c-.37969577 0-.69349096-.2894331-.74315338-.664953l-.00684662-.1043961v-13.84828437c0-.42489979.33578644-.76934913.75-.76934913zm5.25 10.77h-4.5v3.8476335c0 .3894915-.2821539.7113822-.6482294.7623259l-.1017706.0070232-9.75-.0009826v2.3059526c0 .3922152.28611389.7158809.65592159.7633548l.09407841.0059943h13.5c.382351 0 .6978765-.2934953.7441564-.6728436l.0058436-.0965055zm-6.001-4.616h-15l.00010714 7.693863h14.99994646zm5.251-.00228435-3.75-.00071565v3.081h4.5v-2.31093522c0-.39221519-.2861139-.71588089-.6559216-.76335481zm-5.2509464-4.61320057h-14.99994646l-.00010714 3.07748492h15z" fill="#134154"/></svg>