<svg xmlns="http://www.w3.org/2000/svg" width="17" height="18" viewBox="0 0 17 18">
    <path fill="#0D3B4E" fill-rule="nonzero" d="M15.3 0c.938 0 1.7.757 1.7 1.688v14.624c0 .931-.762 1.688-1.7 1.688H2.833c-.937 0-1.7-.757-1.7-1.688v-1.687H.567A.565.565 0 0 1 0 14.062c0-.31.254-.562.567-.562h.566v-2.25H.567A.565.565 0 0 1 0 10.687c0-.31.254-.562.567-.562h.566v-2.25H.567A.565.565 0 0 1 0 7.312c0-.31.254-.562.567-.562h.566V4.5H.567A.565.565 0 0 1 0 3.937c0-.31.254-.562.567-.562h.566V1.687c0-.93.763-1.687 1.7-1.687H15.3zm0 1.125H2.833a.565.565 0 0 0-.566.563v1.687h.566c.313 0 .567.252.567.563 0 .31-.254.562-.567.562h-.566v2.25h.566c.313 0 .567.252.567.563 0 .31-.254.562-.567.562h-.566v2.25h.566c.313 0 .567.252.567.563 0 .31-.254.562-.567.562h-.566v2.25h.566c.313 0 .567.252.567.563 0 .31-.254.562-.567.562h-.566v1.688c0 .31.254.562.566.562H15.3a.565.565 0 0 0 .567-.563V1.688a.565.565 0 0 0-.567-.562zm-2.148 11.438c.313 0 .567.251.567.562 0 .31-.254.563-.567.563H5.856a.565.565 0 0 1-.567-.563c0-.31.254-.563.567-.563h7.296zm0-3c.313 0 .567.251.567.562 0 .31-.254.563-.567.563H5.856a.565.565 0 0 1-.567-.563c0-.31.254-.563.567-.563h7.296zm0-3c.313 0 .567.251.567.562 0 .31-.254.563-.567.563H5.856a.565.565 0 0 1-.567-.563c0-.31.254-.563.567-.563h7.296zm0-3c.313 0 .567.251.567.562 0 .31-.254.563-.567.563H5.856a.565.565 0 0 1-.567-.563c0-.31.254-.563.567-.563h7.296z"/>
</svg>
