<svg xmlns="http://www.w3.org/2000/svg" width="24" height="24" viewBox="0 0 24 24">
    <path fill="#0D3B4E" fill-rule="nonzero" d="M21.2 0c1.269 0 2.3 1.009 2.3 2.25v19.5c0 1.241-1.031 2.25-2.3 2.25H4.333c-1.268 0-2.3-1.009-2.3-2.25V19.5h-.766a.759.759 0 0 1-.767-.75c0-.414.343-.75.767-.75h.766v-3h-.766a.759.759 0 0 1-.767-.75c0-.414.343-.75.767-.75h.766v-3h-.766A.759.759 0 0 1 .5 9.75c0-.414.343-.75.767-.75h.766V6h-.766A.759.759 0 0 1 .5 5.25c0-.414.343-.75.767-.75h.766V2.25c0-1.241 1.032-2.25 2.3-2.25H21.2zm0 1.5H4.333a.759.759 0 0 0-.766.75V4.5h.766c.424 0 .767.336.767.75S4.757 6 4.333 6h-.766v3h.766c.424 0 .767.336.767.75s-.343.75-.767.75h-.766v3h.766c.424 0 .767.336.767.75s-.343.75-.767.75h-.766v3h.766c.424 0 .767.336.767.75s-.343.75-.767.75h-.766v2.25c0 .414.343.75.766.75H21.2a.759.759 0 0 0 .767-.75V2.25a.759.759 0 0 0-.767-.75zm-2.906 15.25c.423 0 .766.336.766.75s-.343.75-.766.75H8.422a.758.758 0 0 1-.766-.75c0-.414.343-.75.766-.75h9.872zm0-4c.423 0 .766.336.766.75s-.343.75-.766.75H8.422a.758.758 0 0 1-.766-.75c0-.414.343-.75.766-.75h9.872zm0-4c.423 0 .766.336.766.75s-.343.75-.766.75H8.422a.758.758 0 0 1-.766-.75c0-.414.343-.75.766-.75h9.872zm0-4c.423 0 .766.336.766.75s-.343.75-.766.75H8.422a.758.758 0 0 1-.766-.75c0-.414.343-.75.766-.75h9.872z"/>
</svg>
