<svg xmlns="http://www.w3.org/2000/svg" width="26" height="32" viewBox="0 0 26 32">
    <path fill="#0D3B4E" fill-rule="nonzero" d="M13 0a6.002 6.002 0 0 1 5.917 5H23a3 3 0 0 1 3 3v21a3 3 0 0 1-3 3H3a3 3 0 0 1-3-3V8a3 3 0 0 1 3-3h4.083A6.002 6.002 0 0 1 13 0zm0 2a4 4 0 0 0-4 4 1 1 0 0 1-1 1H3a1 1 0 0 0-1 1v21a1 1 0 0 0 1 1h20a1 1 0 0 0 1-1V8a1 1 0 0 0-1-1h-5a1 1 0 0 1-1-1 4 4 0 0 0-4-4zm6 21a1 1 0 0 1 .117 1.993L19 25H7a1 1 0 0 1-.117-1.993L7 23h12zm0-5a1 1 0 0 1 .117 1.993L19 20H7a1 1 0 0 1-.117-1.993L7 18h12zm0-5a1 1 0 0 1 .117 1.993L19 15H7a1 1 0 0 1-.117-1.993L7 13h12zm-6-9a1.5 1.5 0 1 1 .001 3A1.5 1.5 0 0 1 13 4z"/>
</svg>
