<svg xmlns="http://www.w3.org/2000/svg" width="24" height="24" viewBox="0 0 24 24">
    <path fill="#0D3B4E" fill-rule="nonzero" d="M12 0c2.287 0 4.185 1.622 4.552 3.75h3.14C20.967 3.75 22 4.757 22 6v15.75c0 1.243-1.033 2.25-2.308 2.25H4.308C3.033 24 2 22.993 2 21.75V6c0-1.243 1.033-2.25 2.308-2.25h3.14C7.815 1.622 9.713 0 12 0zm0 1.5c-1.7 0-3.077 1.343-3.077 3a.76.76 0 0 1-.77.75H4.309a.76.76 0 0 0-.77.75v15.75c0 .414.345.75.77.75h15.384a.76.76 0 0 0 .77-.75V6a.76.76 0 0 0-.77-.75h-3.846a.76.76 0 0 1-.77-.75c0-1.657-1.377-3-3.076-3zm4.615 15.75a.76.76 0 0 1 .77.75.76.76 0 0 1-.77.75h-9.23a.76.76 0 0 1-.77-.75.76.76 0 0 1 .77-.75zm0-3.75a.76.76 0 0 1 .77.75.76.76 0 0 1-.77.75h-9.23a.76.76 0 0 1-.77-.75.76.76 0 0 1 .77-.75zm0-3.75a.76.76 0 0 1 .77.75.76.76 0 0 1-.77.75h-9.23a.76.76 0 0 1-.77-.75.76.76 0 0 1 .77-.75zM12 3l.126.007a1.136 1.136 0 0 1 1.028 1.118c0 .621-.517 1.125-1.154 1.125-.637 0-1.154-.504-1.154-1.125S11.363 3 12 3z"/>
</svg>
