<svg xmlns="http://www.w3.org/2000/svg" width="24" height="24" viewBox="0 0 24 24">
    <path fill="#0D3B4E" fill-rule="nonzero" d="M20.7 0C21.969 0 23 1.009 23 2.25v19.5c0 1.241-1.031 2.25-2.3 2.25H3.833c-1.268 0-2.3-1.009-2.3-2.25V19.5H.767A.759.759 0 0 1 0 18.75c0-.414.343-.75.767-.75h.766v-3H.767A.759.759 0 0 1 0 14.25c0-.414.343-.75.767-.75h.766v-3H.767A.759.759 0 0 1 0 9.75C0 9.336.343 9 .767 9h.766V6H.767A.759.759 0 0 1 0 5.25c0-.414.343-.75.767-.75h.766V2.25c0-1.241 1.032-2.25 2.3-2.25H20.7zm0 1.5H3.833a.759.759 0 0 0-.766.75V4.5h.766c.424 0 .767.336.767.75S4.257 6 3.833 6h-.766v3h.766c.424 0 .767.336.767.75s-.343.75-.767.75h-.766v3h.766c.424 0 .767.336.767.75s-.343.75-.767.75h-.766v3h.766c.424 0 .767.336.767.75s-.343.75-.767.75h-.766v2.25c0 .414.343.75.766.75H20.7a.759.759 0 0 0 .767-.75V2.25a.759.759 0 0 0-.767-.75zm-2.906 15.25c.423 0 .766.336.766.75s-.343.75-.766.75H7.922a.758.758 0 0 1-.766-.75c0-.414.343-.75.766-.75h9.872zm0-4c.423 0 .766.336.766.75s-.343.75-.766.75H7.922a.758.758 0 0 1-.766-.75c0-.414.343-.75.766-.75h9.872zm0-4c.423 0 .766.336.766.75s-.343.75-.766.75H7.922a.758.758 0 0 1-.766-.75c0-.414.343-.75.766-.75h9.872zm0-4c.423 0 .766.336.766.75s-.343.75-.766.75H7.922a.758.758 0 0 1-.766-.75c0-.414.343-.75.766-.75h9.872z"/>
</svg>
