<!-- Generated by IcoMoon.io -->
<svg version="1.1" xmlns="http://www.w3.org/2000/svg" width="32" height="32" viewBox="0 0 32 32">
<title>remove-button</title>
<path fill="#989899" d="M5.818 0h20.364c3.213 0 5.818 2.605 5.818 5.818v20.364c0 3.213-2.605 5.818-5.818 5.818h-20.364c-3.213 0-5.818-2.605-5.818-5.818v-20.364c0-3.213 2.605-5.818 5.818-5.818z"></path>
<path fill="#fff" d="M20.135 9.779l-10.285 10.285c-0.274 0.265-0.444 0.636-0.444 1.046 0 0.803 0.651 1.455 1.455 1.455 0.411 0 0.781-0.17 1.046-0.444l10.284-10.284c0.253-0.261 0.409-0.618 0.409-1.011 0-0.803-0.651-1.455-1.455-1.455-0.392 0-0.749 0.155-1.010 0.408l0-0z"></path>
<path fill="#fff" d="M22.241 20.185l-10.285-10.285c-0.265-0.274-0.636-0.444-1.046-0.444-0.803 0-1.455 0.651-1.455 1.455 0 0.411 0.17 0.781 0.444 1.046l10.284 10.285c0.263 0.264 0.627 0.426 1.029 0.426 0.803 0 1.455-0.651 1.455-1.455 0-0.402-0.163-0.765-0.426-1.028v0z"></path>
</svg>
