<svg height="16" viewBox="0 0 18 16" width="18" xmlns="http://www.w3.org/2000/svg"><path d="m357.285519 256.243683 3.151981.002132c.31066 0 .5625.25184.5625.5625 0 .279595-.20399.511544-.47126.555138l-.09124.007362-1.974865-.000862c2.181868 3.125807 1.82563 7.460583-1.010664 10.183718-2.260711 2.169442-5.591594 2.792901-8.483807 1.587879-.286765-.119479-.422378-.448805-.302899-.73557.119479-.286766.448805-.422379.735571-.3029 2.479176 1.032933 5.334317.498521 7.272093-1.361024 2.392674-2.297214 2.726331-5.932502.953511-8.601151l-.00144 2.04241c0 .310661-.25184.5625-.5625.5625-.279594 0-.511544-.20399-.555138-.471259l-.007362-.091241v-3.375c0-.279594.20399-.511543.47126-.555137l.09124-.007363.168998-.000657c.01798-.001353.03601-.001844.054021-.001475zm-10.723451-.05699c2.258426-2.161497 5.582003-2.783146 8.469211-1.583845.286893.119172.422859.448352.303688.735246s-.448352.422859-.735246.303688c-2.474891-1.028032-5.323901-.495147-7.259735 1.357604-2.395958 2.29374-2.734804 5.928619-.966138 8.599788l.001152-2.040859c0-.31066.25184-.5625.5625-.5625.279594 0 .511544.203991.555138.47126l.007362.09124v3.375c0 .279595-.20399.511544-.47126.555138l-.09124.007362-.169549.000644c-.01846.001394-.036972.001881-.055463.001462l-3.149988-.002106c-.31066 0-.5625-.251839-.5625-.5625 0-.279594.20399-.511543.47126-.555137l.09124-.007363 1.9755.000219c-2.178664-3.129059-1.816733-7.464735 1.024068-10.184341z" fill="#0d3b4e" transform="translate(-343 -254)"/></svg>