<svg xmlns="http://www.w3.org/2000/svg" width="24" height="24" viewBox="0 0 24 24">
    <path fill="#0D3B4E" fill-rule="nonzero" d="M18.98 4.494a.754.754 0 0 1 .12 0h4.15a.75.75 0 0 1 0 1.501h-2.632c2.908 4.168 2.433 9.948-1.349 13.58a10.501 10.501 0 0 1-11.311 2.117.75.75 0 0 1 .576-1.385 9.002 9.002 0 0 0 9.697-1.815 9.008 9.008 0 0 0 1.27-11.47L19.5 9.746a.75.75 0 1 1-1.5 0V5.245a.75.75 0 0 1 .75-.75zM4.75 4.416a10.503 10.503 0 0 1 11.292-2.112.75.75 0 0 1-.576 1.385A9.004 9.004 0 0 0 4.5 16.97v-2.723a.75.75 0 1 1 1.5 0v4.501a.75.75 0 0 1-.75.75l-.231.001a.754.754 0 0 1-.085.001L.75 19.497a.75.75 0 0 1 0-1.5h2.634C.479 13.824.962 8.043 4.749 4.416z"/>
</svg>
