<svg xmlns="http://www.w3.org/2000/svg" width="24" height="24" viewBox="0 0 24 24">
    <path fill="#0D3B4E" fill-rule="nonzero" d="M17.25 10.5a6.75 6.75 0 1 1 0 13.5 6.75 6.75 0 1 1 0-13.5zm0 1.5a5.25 5.25 0 1 0 0 10.5 5.25 5.25 0 0 0 0-10.5zm0 1.5a.75.75 0 0 1 .75.75v2.25h2.25a.75.75 0 0 1 .743.648l.007.102a.75.75 0 0 1-.75.75H18v2.25a.75.75 0 0 1-.648.743L17.25 21a.75.75 0 0 1-.75-.75V18h-2.25a.75.75 0 0 1-.743-.648l-.007-.102a.75.75 0 0 1 .75-.75h2.25v-2.25a.75.75 0 0 1 .648-.743zM12.75 0a.75.75 0 0 1 .75.75v.75h2.25a2.25 2.25 0 0 1 2.245 2.096L18 3.75v4.5a.75.75 0 1 1-1.5 0v-.751h-15v8.251c0 .38.283.693.648.743l.102.007h6a.75.75 0 1 1 0 1.5h-6A2.25 2.25 0 0 1 0 15.75v-12A2.25 2.25 0 0 1 2.25 1.5H4.5V.75a.75.75 0 0 1 .648-.743L5.25 0A.75.75 0 0 1 6 .75v.75h6V.75a.75.75 0 0 1 .648-.743zM4.5 3H2.25a.75.75 0 0 0-.75.75v2.249h15V3.75a.75.75 0 0 0-.648-.743L15.75 3H13.5v.75a.75.75 0 0 1-.648.743l-.102.007a.75.75 0 0 1-.75-.75V3H6v.75a.75.75 0 0 1-.648.743L5.25 4.5a.75.75 0 0 1-.75-.75V3z"/>
</svg>
