<svg xmlns="http://www.w3.org/2000/svg" width="18" height="18" viewBox="0 0 18 18">
    <path fill="#0D3B4E" fill-rule="nonzero" d="M12.938 7.875a5.062 5.062 0 1 1 0 10.124 5.062 5.062 0 0 1 0-10.124zm0 1.125a3.937 3.937 0 1 0-.001 7.874 3.937 3.937 0 0 0 0-7.874zm0 1.125c.28 0 .511.204.555.471l.007.091v1.688h1.688c.28 0 .511.204.555.471l.007.091c0 .311-.252.563-.563.563H13.5v1.688a.563.563 0 0 1-1.118.09l-.007-.09V13.5h-1.688a.563.563 0 0 1-.555-.471l-.007-.091c0-.311.252-.563.563-.563h1.687v-1.688c0-.31.252-.562.563-.562zM9.562 0c.28 0 .512.204.556.471l.007.092v.562h1.688c.882 0 1.607.678 1.68 1.542l.007.146v3.374a.563.563 0 0 1-1.118.092l-.007-.091v-.564H1.125v6.189c0 .279.204.511.471.555l.091.007h4.5a.563.563 0 0 1 .092 1.118l-.091.007h-4.5a1.688 1.688 0 0 1-1.682-1.542L0 11.812v-9c0-.882.678-1.607 1.542-1.68l.145-.007h1.688V.562c0-.28.204-.511.471-.555L3.937 0c.28 0 .512.204.556.471L4.5.563v.562H9V.562c0-.248.161-.459.385-.533L9.47.007 9.562 0zM3.375 2.25H1.687a.563.563 0 0 0-.555.471l-.007.091V4.5h11.25V2.813a.563.563 0 0 0-.471-.556l-.091-.007h-1.688v.563c0 .28-.204.511-.471.555l-.091.007a.563.563 0 0 1-.556-.471L9 2.813V2.25H4.5v.563c0 .28-.204.511-.471.555l-.091.007a.563.563 0 0 1-.556-.471l-.007-.091V2.25z"/>
</svg>
