<svg xmlns="http://www.w3.org/2000/svg" width="24" height="24" viewBox="0 0 24 24">
    <path fill="#0D3B4E" fill-rule="nonzero" d="M24 15.75A2.25 2.25 0 0 1 21.75 18H2.25A2.25 2.25 0 0 1 0 15.75v-7.5A2.25 2.25 0 0 1 2.25 6h19.5A2.25 2.25 0 0 1 24 8.25v7.5zM24 3a1.5 1.5 0 0 1-1.5 1.5h-21A1.5 1.5 0 0 1 0 3V1.5A1.5 1.5 0 0 1 1.5 0h21A1.5 1.5 0 0 1 24 1.5V3zm0 19.5a1.5 1.5 0 0 1-1.5 1.5h-21A1.5 1.5 0 0 1 0 22.5V21a1.5 1.5 0 0 1 1.5-1.5h21A1.5 1.5 0 0 1 24 21v1.5zm-1.5-6.75v-7.5a.75.75 0 0 0-.75-.75H2.25a.75.75 0 0 0-.75.75v7.5c0 .414.336.75.75.75h19.5a.75.75 0 0 0 .75-.75zM22.5 3V1.5h-21V3h21zm0 19.5V21h-21v1.5h21z"/>
</svg>
