<svg xmlns="http://www.w3.org/2000/svg" width="24" height="24" viewBox="0 0 24 24">
    <path fill="#0D3B4E" fill-rule="nonzero" d="M16.892.207a2.71 2.71 0 0 1 1.669 2.641l-.071 1.4a1.209 1.209 0 0 0 1.264 1.269l1.402-.071a2.71 2.71 0 0 1 1.95 4.718l-1.042.94a1.21 1.21 0 0 0 0 1.797l1.043.941a2.71 2.71 0 0 1-1.955 4.718l-1.401-.07a1.208 1.208 0 0 0-1.269 1.269l.071 1.405a2.71 2.71 0 0 1-4.71 1.948l-.941-1.042a1.21 1.21 0 0 0-1.797.001l-.946 1.042a2.71 2.71 0 0 1-4.712-1.952l.072-1.4a1.209 1.209 0 0 0-1.27-1.27l-1.399.071a2.71 2.71 0 0 1-1.958-4.715l1.041-.94a1.21 1.21 0 0 0-.001-1.799L.89 10.163A2.71 2.71 0 0 1 2.842 5.45l1.402.07a1.208 1.208 0 0 0 1.27-1.275l-.067-1.403A2.71 2.71 0 0 1 10.16.892l.94 1.04a1.208 1.208 0 0 0 1.8-.002l.943-1.037a2.71 2.71 0 0 1 3.049-.686zm-1.937 1.695l-.944 1.035a2.708 2.708 0 0 1-4.024 0L9.05 1.901a1.21 1.21 0 0 0-2.103.87l.067 1.398a2.71 2.71 0 0 1-2.846 2.85l-1.398-.07a1.208 1.208 0 0 0-.87 2.103l1.04.944a2.712 2.712 0 0 1 0 4.024l-1.04.94a1.209 1.209 0 0 0 .874 2.103l1.4-.07a2.709 2.709 0 0 1 2.845 2.844l-.072 1.397a1.21 1.21 0 0 0 2.103.87l.944-1.04a2.71 2.71 0 0 1 4.022 0l.939 1.038a1.21 1.21 0 0 0 2.1-.866l-.07-1.4a2.71 2.71 0 0 1 2.843-2.846l1.401.071a1.21 1.21 0 0 0 .873-2.105l-1.043-.94a2.712 2.712 0 0 1 0-4.026l1.043-.94a1.21 1.21 0 0 0-.87-2.105l-1.402.07a2.709 2.709 0 0 1-2.838-2.842l.071-1.4a1.21 1.21 0 0 0-2.107-.871zm-2.956 4.849a5.253 5.253 0 1 1 0 10.505 5.253 5.253 0 0 1 0-10.505zm0 1.5a3.752 3.752 0 1 0 0 7.504 3.752 3.752 0 0 0 0-7.504z"/>
</svg>
