<svg height="24" viewBox="0 0 24 24" width="24" xmlns="http://www.w3.org/2000/svg"><path d="m8.8718811 18.0002535c-.30894887.8737619-1.14231171 1.4997465-2.1218811 1.4997465-.60638476 0-1.15674309-.2398777-1.56135911-.6299171l-3.68864089 1.8429171v1.787h21.75c.4020308 0 .73018.3163248.7491351.7136618l.0008649.0363382c0 .4020308-.3163248.73018-.7136618.7491351l-.0363382.0008649h-22.5c-.40203081 0-.73018001-.3163248-.74913513-.7136618l-.00086487-22.5363382c0-.41421356.33578644-.75.75-.75.40203081 0 .73018001.31632477.74913513.71366182l.00086487.03633818v9.174l4.54470485-2.72549679c-.01943361-.09607335-.03274647-.19436633-.03951404-.2944544l-.00519081-.15404881c0-1.24264069 1.00735931-2.25 2.25-2.25s2.25 1.00735931 2.25 2.25c0 .05897743-.0022692.11742487-.0067249.17525977l2.8732521 1.27739102c.4100621-.43273998.9902469-.70265079 1.6334728-.70265079.2588835 0 .5075551.04372219.7390335.12418526l3.8362687-4.79479629c-.0491233-.18485889-.0753022-.37906672-.0753022-.57938897 0-1.24264069 1.0073593-2.25 2.25-2.25s2.25 1.00735931 2.25 2.25-1.0073593 2.25-2.25 2.25c-.4730708 0-.9120421-.14599756-1.2743145-.39539334l-3.5647917 4.45696703c.2149328.34486392.3391062.75214399.3391062 1.18842631 0 1.2426407-1.0073593 2.25-2.25 2.25s-2.25-1.0073593-2.25-2.25c0-.05932032.0022956-.11810447.0068029-.17626845l-2.87333006-1.27638234c-.41006215.43273998-.99024697.70265079-1.63347284.70265079-.54411759 0-1.04312424-.19314292-1.43220087-.51460971l-5.31779913 3.18860971v7.362l3.0169418-1.5085114c-.00502024-.0408184-.0089473-.081975-.01175099-.1234398l-.00519081-.1540488c0-1.2426407 1.00735931-2.25 2.25-2.25.9799501 0 1.81357999.6264713 2.12224108 1.5007654h3.25551782c.3086611-.8742941 1.142291-1.5007654 2.1222411-1.5007654.5710372 0 1.0923894.2127267 1.4891332.5632568l3.7610142-2.0892774c.0139455-1.2306522 1.015897-2.2239794 2.2498526-2.2239794 1.2426407 0 2.25 1.0073593 2.25 2.25s-1.0073593 2.25-2.25 2.25c-.7068443 0-1.3375608-.3259424-1.7500487-.8357266l-3.5310249 1.9609401c.0204365.1218859.0310736.247094.0310736.3747865 0 1.2426407-1.0073593 2.25-2.25 2.25-.9795694 0-1.8129322-.6259846-2.1218811-1.4997465zm5.3781189-1.5002535c-.4142136 0-.75.3357864-.75.75s.3357864.75.75.75.75-.3357864.75-.75-.3357864-.75-.75-.75zm-7.5 0c-.41421356 0-.75.3357864-.75.75s.33578644.75.75.75.75-.3357864.75-.75-.33578644-.75-.75-.75zm15-3.75c-.4142136 0-.75.3357864-.75.75s.3357864.75.75.75.75-.3357864.75-.75-.3357864-.75-.75-.75zm-6.75-3.75c-.4142136 0-.75.33578644-.75.75 0 .4142136.3357864.75.75.75s.75-.3357864.75-.75c0-.41421356-.3357864-.75-.75-.75zm-6.75-3c-.41421356 0-.75.33578644-.75.75s.33578644.75.75.75.75-.33578644.75-.75-.33578644-.75-.75-.75zm13.5-4.5c-.4142136 0-.75.33578644-.75.75s.3357864.75.75.75.75-.33578644.75-.75-.3357864-.75-.75-.75z" fill="#134154"/></svg>