<svg xmlns="http://www.w3.org/2000/svg" width="28" height="32" viewBox="0 0 28 32">
    <path fill="#0D3B4E" fill-rule="nonzero" d="M20.461 18.589A13.986 13.986 0 0 1 28 31a1 1 0 0 1-2 0c0-4.473-2.491-8.574-6.461-10.636a1 1 0 1 1 .922-1.775zm-12.925 0a1 1 0 0 1 .923 1.774A11.986 11.986 0 0 0 2 31a1 1 0 0 1-2 0 13.986 13.986 0 0 1 7.536-12.41zM4.497 8.566a1 1 0 0 1 .994.883l.006.116v1.438a3 3 0 0 0 2.824 2.994l.176.005h1.171a3.001 3.001 0 0 1 5.83 1 3 3 0 0 1-5.83 1h-1.17a5 5 0 0 1-4.996-4.782l-.005-.217V9.565a1 1 0 0 1 1-1zm8 5.436a1 1 0 1 0 0 2 1 1 0 0 0 0-2zm8.954-8.911a8 8 0 0 1-2.882 9.476 1 1 0 0 1-1.143-1.641 5.999 5.999 0 0 0 2.555-4.46c-1.181.357-2.41.538-3.647.537a12.615 12.615 0 0 1-8.035-2.884 5.95 5.95 0 0 0-.273 1.286 1 1 0 0 1-1.99-.198A8 8 0 0 1 21.45 5.09zm-8.27-3.035A5.996 5.996 0 0 0 9.265 4.31a10.607 10.607 0 0 0 7.07 2.692 10.61 10.61 0 0 0 3.454-.574 6.001 6.001 0 0 0-6.607-4.373z"/>
</svg>
