<svg xmlns="http://www.w3.org/2000/svg" width="24" height="24" viewBox="0 0 24 24">
    <path fill="#0D3B4E" fill-rule="nonzero" d="M15.334 14.261a.75.75 0 0 1 1.012-.32A10.49 10.49 0 0 1 22 23.252a.75.75 0 0 1-1.5 0 8.99 8.99 0 0 0-4.846-7.978.75.75 0 0 1-.32-1.012zm-8.682-.32a.75.75 0 0 1 .692 1.332A8.99 8.99 0 0 0 2.5 23.25a.75.75 0 0 1-1.5 0 10.49 10.49 0 0 1 5.652-9.308zM4.373 6.425a.75.75 0 0 1 .75.75v1.078a2.25 2.25 0 0 0 2.25 2.25h.878a2.25 2.25 0 1 1 0 1.5h-.878a3.75 3.75 0 0 1-3.75-3.75V7.174a.75.75 0 0 1 .75-.75zm6 4.078a.75.75 0 1 0 0 1.5.75.75 0 0 0 0-1.5zM10.682.056a6.001 6.001 0 0 1 4.244 10.87.75.75 0 0 1-.856-1.232 4.5 4.5 0 0 0 1.916-3.344 9.426 9.426 0 0 1-2.736.402A9.461 9.461 0 0 1 7.225 4.59a4.44 4.44 0 0 0-.206.965.75.75 0 0 1-1.492-.15A6 6 0 0 1 10.682.057zm5.009 4.308a4.501 4.501 0 0 0-7.742-1.13 7.956 7.956 0 0 0 5.302 2.018c.883.001 1.758-.145 2.591-.43a4.561 4.561 0 0 0-.151-.458z"/>
</svg>
