<svg xmlns="http://www.w3.org/2000/svg" width="24" height="24" viewBox="0 0 24 24">
    <path fill="#0D3B4E" fill-rule="evenodd" d="M18.429 2A2.58 2.58 0 0 1 21 4.588v16.824A2.58 2.58 0 0 1 18.429 24H5.57A2.58 2.58 0 0 1 3 21.412V4.588A2.58 2.58 0 0 1 5.571 2H18.43zm0 1.721H5.57l-.127.01a.865.865 0 0 0-.734.857v16.824c0 .479.386.867.861.867H18.43a.864.864 0 0 0 .861-.867V4.588a.864.864 0 0 0-.861-.867zM12 18.824c.71 0 1.286.579 1.286 1.294A1.29 1.29 0 0 1 12 21.412a1.29 1.29 0 0 1-1.286-1.294A1.29 1.29 0 0 1 12 18.824z"/>
</svg>
