<svg xmlns="http://www.w3.org/2000/svg" width="24" height="24" viewBox="0 0 24 24">
    <path fill="#0D3B4E" fill-rule="evenodd" d="M19.143 0C20.72 0 22 1.264 22 2.824v18.352C22 22.736 20.72 24 19.143 24H4.857C3.28 24 2 22.736 2 21.176V2.824C2 1.264 3.28 0 4.857 0h14.286zm0 1.878H4.857l-.141.01a.95.95 0 0 0-.816.936v18.352c0 .523.429.946.957.946h14.286a.952.952 0 0 0 .957-.946V2.824a.952.952 0 0 0-.957-.946zM12 18.353a1.42 1.42 0 0 1 1.429 1.412c0 .78-.64 1.411-1.429 1.411a1.42 1.42 0 0 1-1.429-1.411c0-.78.64-1.412 1.429-1.412z"/>
</svg>
