<svg width="24" height="24" viewBox="0 0 24 24" xmlns="http://www.w3.org/2000/svg">
    <path d="M17.25 10.5a6.75 6.75 0 1 1-6.752 6.75 6.75 6.75 0 0 1 6.751-6.75zm0 1.5a5.25 5.25 0 1 0-.002 10.5A5.25 5.25 0 0 0 17.25 12zm3.003-12a2.25 2.25 0 0 1 2.25 2.25v6a.75.75 0 0 1-1.5 0L21.002 6H1.5v12.75c0 .414.336.75.75.75h6.001a.75.75 0 1 1 0 1.5h-6A2.25 2.25 0 0 1 0 18.75V2.25A2.25 2.25 0 0 1 2.25 0h18.003zm-3.004 13.849a.75.75 0 0 1 .75.75v1.9l1.902.001c.39 0 .71.297.747.678l.004.072a.75.75 0 0 1-.75.75h-2.653a.75.75 0 0 1-.75-.75v-2.651a.75.75 0 0 1 .75-.75zM20.253 1.5H2.25a.75.75 0 0 0-.75.75V4.5h19.502V2.25a.75.75 0 0 0-.75-.75z" fill="#134154" fill-rule="nonzero"/>
</svg>
