<svg xmlns="http://www.w3.org/2000/svg" width="24" height="24" viewBox="0 0 24 24">
    <path fill="#0D3B4E" fill-rule="nonzero" d="M21.75 20.462a.76.76 0 0 1 .75.769.76.76 0 0 1-.75.769h-21a.76.76 0 0 1-.75-.77.76.76 0 0 1 .75-.768zm-3-4.616a.76.76 0 0 1 .75.77.76.76 0 0 1-.75.769h-18a.76.76 0 0 1-.75-.77.76.76 0 0 1 .75-.769zm4.5-4.615A.76.76 0 0 1 24 12a.76.76 0 0 1-.75.77H.75A.76.76 0 0 1 0 12a.76.76 0 0 1 .75-.77zm-4.5-4.616a.76.76 0 0 1 .75.77.76.76 0 0 1-.75.769h-18a.76.76 0 0 1-.75-.77.76.76 0 0 1 .75-.769zm3-4.615a.76.76 0 0 1 .75.77.76.76 0 0 1-.75.768h-21A.76.76 0 0 1 0 2.77.76.76 0 0 1 .75 2z"/>
</svg>
