<svg xmlns="http://www.w3.org/2000/svg" width="18" height="15" viewBox="0 0 18 15">
    <path fill="#0D3B4E" fill-rule="nonzero" d="M16.313 13.846a.57.57 0 0 1 .562.577.57.57 0 0 1-.563.577H.563A.57.57 0 0 1 0 14.423a.57.57 0 0 1 .563-.577zM.563 10.385h13.5a.57.57 0 0 1 .562.577.573.573 0 0 1-.471.569l-.091.007H.563A.57.57 0 0 1 0 10.962c0-.287.204-.525.471-.57l.092-.007h13.5zm16.875-3.462A.57.57 0 0 1 18 7.5a.573.573 0 0 1-.471.57l-.091.007H.563A.57.57 0 0 1 0 7.5c0-.287.204-.525.471-.57l.092-.007h16.875zm-3.375-3.461a.57.57 0 0 1 .562.576.573.573 0 0 1-.471.57l-.091.007H.563A.57.57 0 0 1 0 4.038c0-.286.204-.524.471-.569l.092-.007h13.5zM16.313 0a.57.57 0 0 1 .562.577.573.573 0 0 1-.471.57l-.091.007H.563A.57.57 0 0 1 0 .577C0 .29.204.052.471.007L.563 0h15.75z"/>
</svg>
