<svg xmlns="http://www.w3.org/2000/svg" width="24" height="24" viewBox="0 0 24 24">
    <path fill="#0D3B4E" fill-rule="nonzero" d="M21.75 21a.76.76 0 0 1 .75.77.76.76 0 0 1-.75.768h-21A.76.76 0 0 1 0 21.77.76.76 0 0 1 .75 21zm-3-5a.76.76 0 0 1 .75.77.76.76 0 0 1-.75.768h-18A.76.76 0 0 1 0 16.77.76.76 0 0 1 .75 16zm4.5-5a.76.76 0 0 1 .75.77.76.76 0 0 1-.75.768H.75A.76.76 0 0 1 0 11.77.76.76 0 0 1 .75 11zm-4.5-5a.76.76 0 0 1 .75.77.76.76 0 0 1-.75.768h-18A.76.76 0 0 1 0 6.77.76.76 0 0 1 .75 6zm3-5a.76.76 0 0 1 .75.77.76.76 0 0 1-.75.768h-21A.76.76 0 0 1 0 1.77.76.76 0 0 1 .75 1z"/>
</svg>
