<svg xmlns="http://www.w3.org/2000/svg" width="18" height="18" viewBox="0 0 18 18">
    <path fill="#0D3B4E" fill-rule="nonzero" d="M2.25 13.5a2.25 2.25 0 1 1 0 4.5 2.25 2.25 0 0 1 0-4.5zm0 1.125a1.125 1.125 0 1 0 0 2.25 1.125 1.125 0 0 0 0-2.25zm15.188 1.125a.563.563 0 0 1 0 1.125H6.188a.563.563 0 0 1 0-1.125zm-15.188-9a2.25 2.25 0 1 1 0 4.5 2.25 2.25 0 0 1 0-4.5zm0 1.125a1.125 1.125 0 1 0 0 2.25 1.125 1.125 0 0 0 0-2.25zM6.188 9h11.25a.563.563 0 0 1 .09 1.118l-.09.007H6.188a.563.563 0 0 1-.092-1.118L6.187 9h11.25zM2.25 0a2.25 2.25 0 1 1 0 4.5 2.25 2.25 0 0 1 0-4.5zm0 1.125a1.125 1.125 0 1 0 0 2.25 1.125 1.125 0 0 0 0-2.25zM17.438 2.25a.563.563 0 0 1 .09 1.118l-.09.007H6.188a.563.563 0 0 1-.092-1.118l.091-.007h11.25z"/>
</svg>
