<svg xmlns="http://www.w3.org/2000/svg" width="24" height="24" viewBox="0 0 24 24">
    <path fill="#0D3B4E" fill-rule="nonzero" d="M11.458 12.455a.85.85 0 0 1 .855.201l-.064-.057a.84.84 0 0 1 .052.045l.012.012 4.186 4.138a.82.82 0 0 1 0 1.17.844.844 0 0 1-1.184 0l-2.757-2.725v7.933c0 .422-.32.77-.732.822L11.72 24a.832.832 0 0 1-.837-.828l-.001-7.934-2.756 2.727c-.3.296-.77.32-1.098.074l-.086-.074a.82.82 0 0 1 0-1.17l4.186-4.139a.848.848 0 0 1 .29-.187zM12.635 0c3.476 0 6.425 2.36 7.158 5.61l.24.058C22.321 6.284 24 8.335 24 10.728 24 13.578 21.16 16 18.14 16a.832.832 0 0 1-.838-.828c0-.457.375-.827.838-.827 2.146 0 4.186-1.74 4.186-3.616 0-1.83-1.46-3.385-3.337-3.575a.833.833 0 0 1-.745-.714c-.37-2.736-2.755-4.785-5.61-4.785-2.431 0-4.622 1.565-5.387 3.811a.838.838 0 0 1-.91.556 2.016 2.016 0 0 0-.26-.015h-.042l-.294.005c-2.256.113-4.067 1.951-4.067 4.164 0 2.465 1.436 4.169 3.628 4.169.463 0 .838.37.838.827a.832.832 0 0 1-.838.828C2.11 16 0 13.495 0 10.176c0-3.18 2.645-5.786 5.89-5.824C7.042 1.753 9.698 0 12.635 0z"/>
</svg>
