<svg height="24" viewBox="0 0 24 24" width="24" xmlns="http://www.w3.org/2000/svg"><path d="m2.88851429 17.36c.39466666 0 .64533333-.1866667.752-.56l.784-2.352h3.984l.8 2.368c.10666666.3626667.35733333.544.752.544h.73600001c.2453333 0 .4186667-.0693333.52-.208s.1093333-.3253333.024-.56l-3.55200001-10.048c-.10666667-.36266667-.35733334-.544-.752-.544h-1.024c-.37333334 0-.624.18133333-.752.544l-3.552 10.048c-.08533334.2346667-.07733334.4213333.024.56.10133333.1386667.27466666.208.52.208zm5.008-4.592h-2.96l1.024-3.04c.05333333-.16.10133333-.34133333.144-.544.04266666-.20266667.09066666-.39466667.144-.576.04266666-.20266667.096-.416.16-.64h.032c.04266666.224.09066666.43733333.144.64.04266666.18133333.09066666.37333333.144.576.05333333.20266667.10666666.384.16.544zm6.13600001 4.592c.3946667 0 .6453333-.1866667.752-.56l.784-2.352h3.984l.8 2.368c.1066667.3626667.3573333.544.752.544h.736c.2453333 0 .4186667-.0693333.52-.208s.1093333-.3253333.024-.56l-3.552-10.048c-.1066667-.36266667-.3573333-.544-.752-.544h-1.024c-.3733333 0-.624.18133333-.752.544l-3.552 10.048c-.0853333.2346667-.0773333.4213333.024.56s.2746667.208.52.208zm5.008-4.592h-2.96l1.024-3.04c.0533333-.16.1013333-.34133333.144-.544s.0906667-.39466667.144-.576c.0426667-.20266667.096-.416.16-.64h.032c.0426667.224.0906667.43733333.144.64.0426667.18133333.0906667.37333333.144.576s.1066667.384.16.544z" fill="#3e5b67"/></svg>