<svg xmlns="http://www.w3.org/2000/svg" width="24" height="24" viewBox="0 0 24 24">
    <path fill="#134154" fill-rule="nonzero" d="M13.842 3.788a4.874 4.874 0 0 1 7.482 3.39 4.875 4.875 0 0 1-4.775 5.572A7.507 7.507 0 0 1 24 20.249a.75.75 0 0 1-1.5.003 6.006 6.006 0 0 0-7.334-5.853.75.75 0 0 1-.332-1.463 7.535 7.535 0 0 1 1.618-.187 4.844 4.844 0 0 1-1.717-.328.75.75 0 1 1 .542-1.399 3.377 3.377 0 0 0 4.56-2.653c-.64.17-1.298.257-1.96.256a7.554 7.554 0 0 1-4.028-1.155.75.75 0 1 1 .798-1.27 6.056 6.056 0 0 0 3.229.925c.623.001 1.242-.094 1.835-.28a3.374 3.374 0 0 0-5.051-1.799.75.75 0 0 1-.818-1.258zM7.5 12.75a7.5 7.5 0 0 1 7.5 7.5.75.75 0 0 1-1.5 0 6 6 0 1 0-12 0 .75.75 0 0 1-1.5 0 7.5 7.5 0 0 1 7.5-7.5zM7.5 3a4.875 4.875 0 0 1 4.875 4.875l-.003.11.001.001-.002 1.3c.017.91.276 1.802.752 2.582a.75.75 0 1 1-1.28.781 6.67 6.67 0 0 1-.691-1.545A4.86 4.86 0 0 1 7.5 12.75a4.863 4.863 0 0 1-3.656-1.65 6.556 6.556 0 0 1-.687 1.541.75.75 0 0 1-1.28-.781c.523-.857.784-1.85.75-2.893l.01-.74A4.875 4.875 0 0 1 7.5 3zm0 4.372l-.215.183A6.232 6.232 0 0 1 4.279 8.88a3.374 3.374 0 0 0 6.442.005A6.235 6.235 0 0 1 7.5 7.372zm0-2.872c-1.696 0-3.1 1.251-3.339 2.88a4.729 4.729 0 0 0 2.772-1.565.75.75 0 0 1 1.135 0 4.737 4.737 0 0 0 2.77 1.57A3.374 3.374 0 0 0 7.5 4.5z"/>
</svg>
