<svg height="24" viewBox="0 0 24 24" width="24" xmlns="http://www.w3.org/2000/svg"><path d="m23.2188366 8.26038781c.3872495 0 .7057599.29430728.744061.67145171l.0038614.07647073v12.71468145c0 1.1988121-.9412022 2.1786857-2.1246418 2.2406558l-.1191255.0031115h-19.44598339c-1.19881212 0-2.17868567-.9412022-2.24065586-2.1246418l-.00311145-.1191255v-12.71468145c0-.41306616.33485628-.74792244.74792244-.74792244.38724952 0 .70575989.29430728.74406099.67145171l.00386144.07647073v12.71468145c0 .3868502.29468164.70571.67152191.7440563l.07640053.0038661h19.44598339c.3868502 0 .70571-.2946816.7440563-.6715219l.0038661-.0764005v-12.71468145c0-.41306616.3348563-.74792244.7479225-.74792244zm-14.10481998 2.24376729c.24780504 0 .49113905.0575067.71546913.1687341l5.77291775 2.8869575c.7902031.3951015 1.1113272 1.355581.7164202 2.147266-.1551419.3102836-.4061365.5612783-.716374.716397l-5.77364321 2.8873199c-.79147258.3948007-1.75315764.0730818-2.14875255-.7199878-.1100819-.2220296-.16758857-.4653636-.16758857-.7131687v-5.7719667c0-.8847559.71679534-1.6015513 1.60155125-1.6015513zm0 1.4958449c-.05862359 0-.10570637.0470828-.10570637.1057064v5.7719667c0 .0162878.0037931.032338.01110656.0470938.02607111.0522658.08956727.0735076.14101434.0478453l5.77301025-2.8870037c.0207966-.0103984.0370596-.0266613.0471418-.046825.0259506-.0520241.0048978-.1149926-.0471881-.1410356l-5.77066345-2.8858351c-.01637706-.0081197-.03242721-.0119128-.04871503-.0119128zm12.60897508-11.966759c1.2387725 0 2.2437673 1.00499478 2.2437673 2.24376731v3.73961219c0 .41306615-.3348563.74792244-.7479224.74792244h-22.43767316c-.41306616 0-.74792244-.33485629-.74792244-.74792244v-3.73961219c0-1.23877253 1.00499478-2.24376731 2.24376731-2.24376731zm-13.7067507 1.495-5.73923269.00084487c-.41264021 0-.74792244.33528223-.74792244.74792244v2.99168975l5.41915513-.00045706zm7.48 0h-5.924l-1.069 3.74h5.924zm6.2267507.00084487-4.6717507-.00084487-1.069 3.74 6.4886731.00045706v-2.99168975c0-.3868502-.2946816-.70570998-.6715219-.74405632z" fill="#0d3b4e"/></svg>